<?xml version="1.0" encoding="utf-8"?>
<!-- Generator: Adobe Illustrator 19.0.0, SVG Export Plug-In . SVG Version: 6.00 Build 0)  -->
<svg version="1.1" id="Layer_1" xmlns="http://www.w3.org/2000/svg" xmlns:xlink="http://www.w3.org/1999/xlink" x="0px" y="0px"
	 viewBox="0 0 841.9 595.3" style="enable-background:new 0 0 841.9 595.3;" xml:space="preserve">
<style type="text/css">
	.st0{fill:#FFFFFF;}
	.st1{fill-rule:evenodd;clip-rule:evenodd;fill:#A0A0A0;}
	.st2{fill:#A0A0A0;}
</style>
<path d="M1156-1140.7c-2,3.9-4,7.7-6.5,12.5c-2.4-4.7-4.3-8.4-6.2-12.1c-0.3,0-0.6,0.1-0.9,0.1c0,3.8,0,7.6,0,11.7
	c-4.9,0-9.1,0-13.7,0c0-12.7,0-25.2,0-37.9c3.6-0.5,7-1.1,10.4-1.2c1.1,0,2.5,1.3,3.2,2.4c2.5,4,4.8,8.2,7.2,12.4
	c3.3-5,5.6-10.4,9.7-13.6c2.4-1.9,7.6-0.4,11.7-0.4c0,12.9,0,25.4,0,38.2c-4.5,0-8.9,0-13.7,0c0-4,0-7.9,0-11.7
	C1156.8-1140.4,1156.4-1140.6,1156-1140.7z"/>
<path d="M1390.6-1139c0.3,3.4,0.6,6.8,0.9,10.6c-5.2,0-10,0-15.3,0c0-12.8,0-25.3,0-37.8c8.3,0,17-1.1,25.3,0.3
	c10.1,1.7,13,13.4,5.7,20.8c-2.2,2.2-2,3.8-0.8,6c1.8,3.3,3.4,6.8,5.4,11c-5.1,0-9.5,0.2-13.9-0.1c-1.1-0.1-2.3-1.6-2.9-2.7
	c-1.3-2.6-2.2-5.4-3.3-8.1C1391.4-1139.1,1391-1139.1,1390.6-1139z M1389.4-1150.6c4.2,0.8,6.7,0.7,6.7-2.7c0-0.9-2.2-1.9-3.3-2.8
	C1391.8-1154.4,1390.7-1152.7,1389.4-1150.6z"/>
<path d="M1454.4-1128.2c-5.4,0-9.6,0.4-13.7-0.1c-2.9-0.4-5.7-2-8.6-2.8c-0.9-0.3-2.3-0.2-2.9,0.4c-4.9,5.2-10.9,1.3-17.1,2.9
	c4.6-13.3,8.9-25.7,13.4-38c0.3-0.9,2.1-1.8,3.2-1.8c3.4,0,6.8,0.4,11.5,0.7C1444.7-1154.9,1449.4-1142,1454.4-1128.2z"/>
<path d="M1201.1-1167.3c4.6,12.8,9.2,25.6,14.2,39.5c-6.2-0.5-11.8,0.5-15.6-1.7c-3.4-2-7.4-2.6-9-1.2c-4.9,4-10.1,1.9-15.1,2.5
	c-0.5,0.1-0.9-0.2-2-0.4c4.5-13.1,9-26,13.4-38.6C1191.8-1167.3,1195.9-1167.3,1201.1-1167.3z"/>
<path d="M1286.6-1128.7c4.6-13.3,9.1-26.1,13.5-38.9c4.5,0.2,8.6,0.4,14.1,0.7c4.4,12,9,24.8,14.2,38.8c-6.1-0.4-11.8,0.7-15.5-1.5
	c-3.4-2-7.3-2.7-8.9-1.4c-4.9,4-10.1,2-15.1,2.5C1288.3-1128.3,1287.8-1128.5,1286.6-1128.7z"/>
<path d="M1251.4-1128.7c0-12.6,0-25.2,0-38.1c7.6,0,15-0.5,22.4,0.1c7.6,0.6,12.2,7.3,11.8,15.8c-0.4,8.8-4.9,13.9-13.2,14.6
	c-1.9,0.2-3.9,0-6.2,0c0,2.7,0,5,0,7.6C1261.4-1128.7,1256.7-1128.7,1251.4-1128.7z M1264.4-1151.3c1.3,1.7,2.3,3.1,3.3,4.4
	c1.2-1.5,3.3-3.1,3.4-4.6c0-1.5-2.1-3.1-3.3-4.6C1266.8-1154.8,1265.8-1153.3,1264.4-1151.3z"/>
<path d="M1496.2-1167c8.9,0,17.3-0.1,25.7,0.1c0.9,0,2.3,1,2.4,1.8c0.6,3.2,0.8,6.4,1.1,9.5c-5.1,0-9.6,0-14.6,0
	c2.9,3,4.8,3.3,13.5,1.8c-0.4,3.5-0.7,6.8-1.1,10.6c-3.2,0-6.1-0.1-9.1,0.1c-1.1,0.1-2.1,1.1-3.1,1.6c1,0.8,2,2.2,3.1,2.3
	c3.9,0.3,7.9,0.1,12.3,0.1c-0.8,3.9-1.5,7.3-2.2,10.7c-9.5,0-18.6,0-28.1,0C1496.2-1141.1,1496.2-1153.8,1496.2-1167z"/>
<path d="M1455.8-1166.8c4.9,0,9.4,0,14.2,0c0,3.8-0.2,7.5,0.1,11.2c0.3,3.5,1.1,6.9,1.6,10.3c0.9,0,1.7,0,2.6,0
	c0.8-7.1,1.6-14.1,2.4-21.4c4.5,0,9.1,0,14.7,0c-0.5,5.3-0.3,10.7-1.6,15.7c-1.5,5.4-4.6,10.3-6.6,15.6c-2.2,5.9-5.7,8.4-12.3,7.6
	c-3.4-0.4-5.4-1.1-6.6-4.4c-1.5-3.9-3.3-7.6-5.4-11.2C1454.6-1150.8,1455.2-1158.5,1455.8-1166.8z"/>
<path d="M1372.2-1156.3c-2.2,0.1-4.1,0.2-6.6,0.3c0,9.1,0,18.1,0,27.5c-5.1,0-9.8,0-15,0c0-9.1,0-18.1,0-27.4
	c-2.5-0.1-4.6-0.2-7.4-0.4c0.5-3.8,0.9-7.4,1.3-11.1c9.3,0,18.3,0,27.6,0C1372.2-1164.2,1372.2-1160.5,1372.2-1156.3z"/>
<path d="M1543.8-1166.3c0,8.9,0,17.7,0,26.9c4.5,0,9,0,14.5,0c-0.3,3.8-0.7,7.9-1,11.6c-9.4,0-18.2,0-27.6,0c0-13,0-25.4,0-38.5
	C1533.9-1166.3,1538.8-1166.3,1543.8-1166.3z"/>
<path d="M1232.7-1166.5c0,9.1,0,17.9,0,27.1c4.6,0,9.3,0,14.6,0c-0.4,3.8-0.8,7.7-1.1,11.4c-9.2,0-17.9,0-27.3,0
	c0-13.1,0-25.6,0-38.5C1223.1-1166.5,1227.8-1166.5,1232.7-1166.5z"/>
<path class="st0" d="M1389.4-1150.6c1.3-2.2,2.4-3.8,3.4-5.5c1.2,0.9,3.3,1.9,3.3,2.8C1396.1-1149.9,1393.6-1149.8,1389.4-1150.6z"
	/>
<path class="st0" d="M1264.4-1151.3c1.4-2,2.3-3.4,3.3-4.9c1.2,1.5,3.4,3.1,3.3,4.6c0,1.6-2.1,3.1-3.4,4.6
	C1266.7-1148.3,1265.7-1149.6,1264.4-1151.3z"/>
<g>
	<path class="st1" d="M94.7,314.3c1.2-0.1,2.4-0.3,3.6-0.3c30.5-0.1,61-0.3,91.4-0.3c21.6,0,43.2,0.2,64.7,0.3c1.3,0,2.6,0,4.6,0
		c-13.4,34.3-26.5,68-39.6,101.6c-6.5,0-13,0-19.4,0c-7.6-19.4-15.2-38.8-23.1-59.2c-8,20.4-15.5,39.8-23.1,59.2c-6.5,0-13,0-19.4,0
		c-8-20.4-15.9-40.8-24-61.2c-5.2-13.1-10.5-26.2-15.7-39.3C94.7,314.8,94.7,314.5,94.7,314.3z M167.4,333.8c-15.5,0-30.3,0-45.6,0
		c7.2,19,14.2,37.5,21.6,56.9C151.6,371.2,159.4,352.7,167.4,333.8z M233.1,333.7c-15.4,0-30.2,0-45.6,0
		c7.2,18.9,14.2,37.5,21.6,56.9C217.3,371.1,225.1,352.6,233.1,333.7z"/>
	<path class="st1" d="M590.4,415.5c-0.1-1.1-0.2-2.1-0.2-3.2c0-31.5,0-62.9,0-94.4c0-1.2,0.1-2.4,0.3-4.4c5.8,0,11.5-0.2,17.1,0.2
		c1,0.1,2.3,1.9,2.9,3.2c8.4,17.9,16.8,35.9,25.2,53.8c0.3,0.7,0.7,1.4,1.7,2.1c0-19.4,0-38.8,0-58.5c6.7,0,13,0,19.6,0
		c0,33.8,0,67.6,0,101.3c-6.5,0-13,0-19.4,0c-9.4-20-18.9-40-28.4-60c-0.3,0.1-0.5,0.2-0.8,0.2c0,19.9,0,39.8,0,59.7
		C602.3,415.5,596.4,415.5,590.4,415.5z"/>
	<path class="st1" d="M677.1,415.5c0.1-7.8,0.2-15.6,0.2-23.4c0-24.7,0.1-49.3-0.1-74c0-3.4,1.1-4.3,4.4-4.3
		c15.4,0.2,30.7,0.1,46.1,0c2.8,0,4.3,0.8,5.4,3.5c6,14,12.2,27.8,18.4,41.7c0.5,1.1,1.2,2,1.7,3.1c0,0.8,0,1.6,0,2.4
		c-0.6,1.2-1.3,2.3-1.8,3.5c-6.7,15.8-13.4,31.7-20.1,47.6C713.3,415.5,695.2,415.5,677.1,415.5z M696,333.3c0,21.2,0,41.8,0,62.7
		c7.9,0,15.4,0.1,23-0.1c1,0,2.6-1.3,3-2.4c3.9-9.5,7.6-19,11.2-28.5c0.4-1.1,0.3-2.6-0.1-3.7c-3.6-8.6-7.2-17.1-10.9-25.6
		c-0.4-1-1.5-2.2-2.4-2.3C711.8,333.2,703.9,333.3,696,333.3z"/>
	<path class="st1" d="M430.8,415.5c0-33.7,0-67.4,0-101.6c5.6,0,10.8,0,16.1,0c2.9,0,2.2,2.2,2.2,3.8c0,10.7,0,21.3,0,32
		c0,1.1,0.1,2.1,0.2,3.9c3.8,0,7.5,0.2,11.2-0.2c1-0.1,2.1-1.9,2.6-3.1c4.7-11,9.4-22,13.8-33.1c1-2.6,2.4-3.5,5.1-3.3
		c5,0.2,9.9,0.1,15.6,0.1c-0.7,1.9-1.1,3.2-1.7,4.5c-5.7,13.7-11.3,27.4-17.1,41c-1.2,2.7-1.1,5,0.1,7.6c6.4,15,12.6,30,18.8,45
		c0.5,1.1,0.7,2.3,1.1,3.4c-6.7,0-13.5,0-20.2,0c-5.4-13.3-10.8-26.6-16.4-39.9c-0.3-0.7-1.4-1.4-2.1-1.4c-3.6-0.1-7.2-0.1-10.7-0.1
		c0,14.1,0,27.7,0,41.3C443.3,415.5,437,415.5,430.8,415.5z"/>
	<path class="st1" d="M512.6,415.5c0-33.7,0-67.4,0-101.4c19.6,0,38.5,0,58.2,0c-2.5,6.1-4.7,12-7.3,17.7c-0.4,0.9-2.5,1.3-3.7,1.4
		c-8,0.1-15.9,0.1-23.9,0.1c-1.5,0-2.9,0-4.6,0c0,6.9,0,13.3,0,20.3c8.9,0,17.7,0,27.1,0c-2.7,6.8-5.1,12.9-7.7,18.9
		c-0.4,0.9-2.3,1.6-3.5,1.6c-5.2,0.2-10.5,0.1-16,0.1c0,7.3,0,14.3,0,21.7c11.9,0,23.5,0,35.8,0c-2.9,6.9-5.5,13.3-8.1,19.6
		C543.4,415.5,528,415.5,512.6,415.5z"/>
	<path class="st1" d="M274.5,415.5c0-33.2,0-66.4,0-99.6c0-0.5,0.2-1,0.3-1.8c19.1,0,38,0,57.6,0c-2.5,6.2-4.7,12.1-7.3,17.8
		c-0.4,0.9-2.5,1.3-3.8,1.3c-9.3,0.1-18.6,0.1-28.4,0.1c0,6.8,0,13.3,0,20.2c8.7,0,17.6,0,27.1,0c-2.7,6.8-5.1,13.1-7.7,19.2
		c-0.4,0.8-2.1,1.4-3.2,1.5c-5.4,0.2-10.7,0.1-16.4,0.1c0,7.3,0,14.3,0,21.7c11.8,0,23.5,0,35.8,0c-2.8,7-5.3,13.3-7.8,19.6
		C305.3,415.5,289.9,415.5,274.5,415.5z"/>
	<path class="st1" d="M351.4,415.5c0-33.2,0-66.4,0.1-99.6c0-0.5,0.2-1,0.3-1.8c19.1,0,38,0,57.7,0c-2.5,6.2-4.7,12.1-7.3,17.8
		c-0.4,0.9-2.5,1.3-3.8,1.3c-9.3,0.1-18.6,0.1-28.4,0.1c0,6.7,0,13.3,0,20.2c8.7,0,17.6,0,27.1,0c-2.7,6.8-5.1,13.1-7.8,19.2
		c-0.4,0.8-2.1,1.4-3.3,1.5c-5.4,0.2-10.7,0.1-16.4,0.1c0,7.3,0,14.3,0,21.7c11.8,0,23.5,0,35.8,0c-2.8,7-5.3,13.3-7.8,19.6
		C382.2,415.5,366.8,415.5,351.4,415.5z"/>
	<path class="st1" d="M289.9,132c-3,7.5-6.1,14.9-8.9,22.4c-1,2.6-2.3,3.4-5,3.3c-5-0.2-9.9-0.1-15.8-0.1
		c3.6-8.9,6.9-17.3,10.3-25.7C276.9,132,283.4,132,289.9,132z"/>
	<g>
		<path class="st2" d="M275.1,175.1c-0.4-1.1-2.3-2.2-3.5-2.3c-4.2-0.3-8.4,0.1-12.5-0.2c-3.1-0.2-4.5,0.9-5.6,3.7
			c-12.1,31.2-24.3,62.4-36.5,93.6c-0.5,1.3-1,2.7-1.6,4.3c33.1,0,65.6,0,98.5,0c-0.2-0.8-0.2-1.2-0.3-1.5
			C300.8,240.2,288,207.6,275.1,175.1z M241.2,254.7c8-19,15.8-37.5,24.1-57.1c7.4,19.4,14.4,38,21.7,57.1
			C271.4,254.7,256.6,254.7,241.2,254.7z"/>
	</g>
	<path class="st1" d="M461.3,274.2c1.3-3.4,2.4-6.4,3.6-9.3c11.5-29.5,23.1-58.9,34.5-88.4c1.1-2.9,2.5-4,5.5-3.8
		c4.2,0.2,8.4-0.1,12.5,0.2c1.2,0.1,3.1,1.2,3.5,2.3c12.9,32.5,25.7,65.1,38.5,97.6c0.1,0.3,0,0.8,0,1.4
		C527,274.2,494.5,274.2,461.3,274.2z M511.2,197.6c-8.3,19.6-16.1,38.2-24,57c15.6,0,30.4,0,45.7,0
		C525.6,235.7,518.6,217.3,511.2,197.6z"/>
	<path class="st1" d="M630,184.6c-4.2,3.7-8.3,7.5-12.7,11.4c-2.9-2.6-5.7-5-8.5-7.5c-3.5-3.2-7.8-3.1-11.8-2c-6,1.6-7.3,9-2.5,13.6
		c4.2,4,8.8,7.6,13.1,11.4c5.5,5,11,9.9,16.2,15.2c6,6.1,9,13.6,8.7,22.3c-0.3,7.2-3.2,13.2-8.9,17.4
		c-17.2,12.5-41.7,10.6-54.2-10.6c-0.4-0.7-0.6-1.4-1.1-2.5c5-3.3,9.9-6.5,15-9.9c2.7,3.2,5.2,6.6,8.1,9.5c4,4,8.8,5.5,14.4,3.6
		c8.7-2.9,11.1-10.7,4.7-17c-7-6.9-14.9-12.8-22.3-19.4c-3.2-2.9-6.2-6-9.1-9.2c-15.5-17.6-2.6-36.8,13.5-40.9
		C606.6,166.6,621,172,630,184.6z"/>
	<path class="st1" d="M359.3,274.1c-6.8,0-12.9,0-19.6,0c0-28.2,0-56.2,0-84.5c-6.6,0-12.6,0-18.9,0c0-5.7,0-11,0-16.6
		c18.8,0,37.4,0,56.3,0c0,5.5,0,10.7,0,16.3c-5.7,0-11.4,0-17.8,0C359.3,217.8,359.3,245.9,359.3,274.1z"/>
	<path class="st1" d="M416.9,172.8c0,27.5,0,54.5,0,82c11.5,0,22.8,0,34.8,0c-2.2,6.5-4.1,12.4-6.2,18.2c-0.3,0.7-1.9,1.3-2.9,1.3
		c-13.6,0.1-27.3,0-40.9,0.1c-2.3,0-3-0.8-3-3.1c0-31.9,0-63.7,0.1-95.6c0-1,1.1-2.8,1.8-2.8C405.9,172.7,411.3,172.8,416.9,172.8z"
		/>
</g>
</svg>
