<?xml version="1.0" encoding="utf-8"?>
<!-- Generator: Adobe Illustrator 19.0.0, SVG Export Plug-In . SVG Version: 6.00 Build 0)  -->
<svg version="1.1" id="Layer_1" xmlns="http://www.w3.org/2000/svg" xmlns:xlink="http://www.w3.org/1999/xlink" x="0px" y="0px"
	 viewBox="0 0 841.9 595.3" style="enable-background:new 0 0 841.9 595.3;" xml:space="preserve">
<style type="text/css">
	.st0{fill:#FFFFFF;}
	.st1{fill:#A0A0A0;}
</style>
<path d="M1156-1140.7c-2,3.9-4,7.7-6.5,12.5c-2.4-4.7-4.3-8.4-6.2-12.1c-0.3,0-0.6,0.1-0.9,0.1c0,3.8,0,7.6,0,11.7
	c-4.9,0-9.1,0-13.7,0c0-12.7,0-25.2,0-37.9c3.6-0.5,7-1.1,10.4-1.2c1.1,0,2.5,1.3,3.2,2.4c2.5,4,4.8,8.2,7.2,12.4
	c3.3-5,5.6-10.4,9.7-13.6c2.4-1.9,7.6-0.4,11.7-0.4c0,12.9,0,25.4,0,38.2c-4.5,0-8.9,0-13.7,0c0-4,0-7.9,0-11.7
	C1156.8-1140.4,1156.4-1140.6,1156-1140.7z"/>
<path d="M1390.6-1139c0.3,3.4,0.6,6.8,0.9,10.6c-5.2,0-10,0-15.3,0c0-12.8,0-25.3,0-37.8c8.3,0,17-1.1,25.3,0.3
	c10.1,1.7,13,13.4,5.7,20.8c-2.2,2.2-2,3.8-0.8,6c1.8,3.3,3.4,6.8,5.4,11c-5.1,0-9.5,0.2-13.9-0.1c-1.1-0.1-2.3-1.6-2.9-2.7
	c-1.3-2.6-2.2-5.4-3.3-8.1C1391.4-1139.1,1391-1139.1,1390.6-1139z M1389.4-1150.6c4.2,0.8,6.7,0.7,6.7-2.7c0-0.9-2.2-1.9-3.3-2.8
	C1391.8-1154.4,1390.7-1152.7,1389.4-1150.6z"/>
<path d="M1454.4-1128.2c-5.4,0-9.6,0.4-13.7-0.1c-2.9-0.4-5.7-2-8.6-2.8c-0.9-0.3-2.3-0.2-2.9,0.4c-4.9,5.2-10.9,1.3-17.1,2.9
	c4.6-13.3,8.9-25.7,13.4-38c0.3-0.9,2.1-1.8,3.2-1.8c3.4,0,6.8,0.4,11.5,0.7C1444.7-1154.9,1449.4-1142,1454.4-1128.2z"/>
<path d="M1201.1-1167.3c4.6,12.8,9.2,25.6,14.2,39.5c-6.2-0.5-11.8,0.5-15.6-1.7c-3.4-2-7.4-2.6-9-1.2c-4.9,4-10.1,1.9-15.1,2.5
	c-0.5,0.1-0.9-0.2-2-0.4c4.5-13.1,9-26,13.4-38.6C1191.8-1167.3,1195.9-1167.3,1201.1-1167.3z"/>
<path d="M1286.6-1128.7c4.6-13.3,9.1-26.1,13.5-38.9c4.5,0.2,8.6,0.4,14.1,0.7c4.4,12,9,24.8,14.2,38.8c-6.1-0.4-11.8,0.7-15.5-1.5
	c-3.4-2-7.3-2.7-8.9-1.4c-4.9,4-10.1,2-15.1,2.5C1288.3-1128.3,1287.8-1128.5,1286.6-1128.7z"/>
<path d="M1251.4-1128.7c0-12.6,0-25.2,0-38.1c7.6,0,15-0.5,22.4,0.1c7.6,0.6,12.2,7.3,11.8,15.8c-0.4,8.8-4.9,13.9-13.2,14.6
	c-1.9,0.2-3.9,0-6.2,0c0,2.7,0,5,0,7.6C1261.4-1128.7,1256.7-1128.7,1251.4-1128.7z M1264.4-1151.3c1.3,1.7,2.3,3.1,3.3,4.4
	c1.2-1.5,3.3-3.1,3.4-4.6c0-1.5-2.1-3.1-3.3-4.6C1266.8-1154.8,1265.8-1153.3,1264.4-1151.3z"/>
<path d="M1496.2-1167c8.9,0,17.3-0.1,25.7,0.1c0.9,0,2.3,1,2.4,1.8c0.6,3.2,0.8,6.4,1.1,9.5c-5.1,0-9.6,0-14.6,0
	c2.9,3,4.8,3.3,13.5,1.8c-0.4,3.5-0.7,6.8-1.1,10.6c-3.2,0-6.1-0.1-9.1,0.1c-1.1,0.1-2.1,1.1-3.1,1.6c1,0.8,2,2.2,3.1,2.3
	c3.9,0.3,7.9,0.1,12.3,0.1c-0.8,3.9-1.5,7.3-2.2,10.7c-9.5,0-18.6,0-28.1,0C1496.2-1141.1,1496.2-1153.8,1496.2-1167z"/>
<path d="M1455.8-1166.8c4.9,0,9.4,0,14.2,0c0,3.8-0.2,7.5,0.1,11.2c0.3,3.5,1.1,6.9,1.6,10.3c0.9,0,1.7,0,2.6,0
	c0.8-7.1,1.6-14.1,2.4-21.4c4.5,0,9.1,0,14.7,0c-0.5,5.3-0.3,10.7-1.6,15.7c-1.5,5.4-4.6,10.3-6.6,15.6c-2.2,5.9-5.7,8.4-12.3,7.6
	c-3.4-0.4-5.4-1.1-6.6-4.4c-1.5-3.9-3.3-7.6-5.4-11.2C1454.6-1150.8,1455.2-1158.5,1455.8-1166.8z"/>
<path d="M1372.2-1156.3c-2.2,0.1-4.1,0.2-6.6,0.3c0,9.1,0,18.1,0,27.5c-5.1,0-9.8,0-15,0c0-9.1,0-18.1,0-27.4
	c-2.5-0.1-4.6-0.2-7.4-0.4c0.5-3.8,0.9-7.4,1.3-11.1c9.3,0,18.3,0,27.6,0C1372.2-1164.2,1372.2-1160.5,1372.2-1156.3z"/>
<path d="M1543.8-1166.3c0,8.9,0,17.7,0,26.9c4.5,0,9,0,14.5,0c-0.3,3.8-0.7,7.9-1,11.6c-9.4,0-18.2,0-27.6,0c0-13,0-25.4,0-38.5
	C1533.9-1166.3,1538.8-1166.3,1543.8-1166.3z"/>
<path d="M1232.7-1166.5c0,9.1,0,17.9,0,27.1c4.6,0,9.3,0,14.6,0c-0.4,3.8-0.8,7.7-1.1,11.4c-9.2,0-17.9,0-27.3,0
	c0-13.1,0-25.6,0-38.5C1223.1-1166.5,1227.8-1166.5,1232.7-1166.5z"/>
<path class="st0" d="M1389.4-1150.6c1.3-2.2,2.4-3.8,3.4-5.5c1.2,0.9,3.3,1.9,3.3,2.8C1396.1-1149.9,1393.6-1149.8,1389.4-1150.6z"
	/>
<path class="st0" d="M1264.4-1151.3c1.4-2,2.3-3.4,3.3-4.9c1.2,1.5,3.4,3.1,3.3,4.6c0,1.6-2.1,3.1-3.4,4.6
	C1266.7-1148.3,1265.7-1149.6,1264.4-1151.3z"/>
<g>
	<path class="st1" d="M742.4,251.8c16-0.5,29.2,3.3,41.1,11.4c20.8,14.3,21,38.4,0.5,53.1c-22.7,16.3-59.2,16.3-81.7-0.3
		c-8.1-5.9-14.1-13.5-14.7-24.1c-0.7-13,5.8-22,15.9-28.9C715.7,254.7,729.3,251.1,742.4,251.8z M778.3,285c-2.2,0.4-4.2,1.3-6,1.1
		c-3.2-0.4-6.4-1.5-9.6-2.1c-2-0.4-4-0.5-6.1-0.5c-2,0-4.3-0.2-5.9,0.7c-8.7,4.7-15.6,11.1-18,21.3c-0.5,2.1-0.1,2.9,2,3.1
		c14.4,1.7,28-0.2,39.7-9.3c7.4-5.7,11.7-13.2,9.5-23c-1.5-6.5-5.7-11.3-11.1-15.1c-15.9-11.2-42.4-11.4-58.5-0.5
		c-7.1,4.8-12.2,10.9-12.4,20c-0.1,5.3,3.1,7,8.4,4.3c-1.7-0.6-3.2-1-5.1-1.7c4-2.2,8.5,1.4,12-2.1c-2.2-0.3-4-0.5-5.9-0.7
		c0-0.4,0.1-0.7,0.1-1.1c3.7-0.2,7.3-0.5,11-0.7c0-0.3-0.1-0.7-0.1-1c-1.2-0.2-2.5-0.5-3.7-0.7c0-0.2,0.1-0.4,0.1-0.5
		c11.7-2.7,23.3-5.4,34.4-8c3.1,1.9,6.2,3.9,10,6.3C768.5,276.5,775.2,277.1,778.3,285z"/>
	<path class="st1" d="M544.4,248.1c-2.2,4.5-4.1,8.2-6,11.9c-2,4-1.6,4.6,3.1,4.6c6.3,0,12.5-0.1,18.8,0.2
		c9.8,0.5,13.4,6.7,9.1,15.6c-4.9,9.9-10.1,19.7-15,29.6c-1.1,2.2-2.5,2.9-4.8,2.8c-4.9-0.2-9.8-0.1-15.4-0.1
		c2.1-4.2,3.9-7.6,5.6-11.1c2.4-4.8,5-9.6,7.3-14.5c3.2-6.9,0.3-11.4-7.3-12.2c-6.3-0.6-10.3,0.6-13,7.3
		c-3.8,9.5-9.1,18.3-13.7,27.5c-1.1,2.2-2.4,3.2-5,3.2c-19.9-0.1-39.7-0.1-59.6-0.2c-2.1,0-4.4-0.3-6.4-1c-4.9-1.5-7.1-5.3-5.6-10.1
		c4.1-12.9,9.9-24.8,22-32.4c6.2-3.9,13.1-4.7,20.1-4.8c8.4-0.2,16.8,0,25.3,0.1c0.8,0,1.7,0.1,3.4,0.2c-1.7,3.3-3.1,6.3-4.9,9
		c-0.4,0.6-1.9,0.7-2.9,0.8c-5.1,0.1-10.1,0.4-15.2,0c-11.5-0.9-18.6,4.9-23.5,14.5c-0.6,1.2-1.2,2.4-1.6,3.6
		c-2.3,6.4-0.1,9.9,6.7,10c9.9,0.2,19.8,0.2,29.6-0.1c1.2,0,2.9-1.5,3.6-2.7c8.3-16.2,16.6-32.4,24.7-48.6c1.2-2.4,2.6-3.3,5.3-3.2
		C534,248.2,538.8,248.1,544.4,248.1z"/>
	<path class="st1" d="M137.2,265.3c-1.6,3-2.9,5.9-4.6,8.4c-0.5,0.8-2.3,1.1-3.5,1.1c-5.9,0.1-11.8,0.4-17.7,0.1
		c-13.8-0.7-21.3,13.3-23,22c-0.6,3.2,1.5,5,4.3,5.7c1.8,0.5,3.8,0.6,5.7,0.6c9.2,0,18.3-0.1,27.5-0.1c2.4,0,3.4-0.4,3.9-3.2
		c2.8-18.3,18.9-33.5,37.3-34.8c8.3-0.6,16.6-0.6,24.9,0c11,0.7,14.4,6,10.3,16.3c-2.5,6.3-5.9,12.4-9.9,17.9
		c-7.7,10.6-19,14-31.8,13.9c-18.9-0.1-37.8,0-56.7,0.1c-7.5,0-14.9,0.1-22.4,0.1c-0.8,0-1.7,0-2.5,0c-11.8-0.3-15.3-5.5-10.8-16.2
		c3.5-8.3,7.4-16.5,14.2-22.8c6-5.5,13-8.8,21.1-9.1c10.5-0.3,21-0.2,31.4-0.2C135.4,264.9,136,265.1,137.2,265.3z M159.6,302.5
		c6,0.2,11.3-1.7,14.9-6.6c2.4-3.3,4.4-6.9,5.9-10.7c2.5-6.1-0.2-9.7-6.8-10c-11.8-0.7-19.4,5.2-23.5,18.2c-1.6,5.2,0.5,8.5,6,9.1
		C157.1,302.6,158.4,302.5,159.6,302.5z"/>
	<path class="st1" d="M195.3,313c7.2-14.1,13.9-27.4,20.9-40.6c2.5-4.8,7.1-7.3,12.5-7.4c16.1-0.2,32.3-0.3,48.4-0.2
		c5.1,0,10.4,0.1,15.4,1.1c6.7,1.4,8.8,5.2,6.7,11.8c-1.1,3.5-3,6.8-4.6,10.2c-3.7,7.4-7.5,14.8-11.2,22.3c-1.1,2.2-2.4,3.2-5,3.1
		c-4.9-0.2-9.8-0.1-15.4-0.1c3.5-7,6.7-13.3,9.9-19.6c1.7-3.3,3.4-6.6,4.8-10.1c1.5-3.7,0.3-6.3-3-7.7c-4-1.6-7.5-0.7-9.2,2.6
		c-5.2,10.1-10.4,20.1-15.3,30.3c-1.6,3.3-3.5,4.6-7.2,4.4c-4.4-0.3-8.8-0.1-13.8-0.1c3.5-6.9,6.7-13.2,9.9-19.5
		c2.6-5,5.1-10.1,7.7-15.1c1.1-2.2,0.5-3.2-1.8-3.3c-2.4,0-4.8,0-7.2,0.1c-3.4,0.1-5.5,1.9-6.9,4.9c-4.8,9.6-9.8,19.1-14.4,28.7
		c-1.5,3.2-3.1,4.8-7.1,4.3C204.9,312.5,200.5,313,195.3,313z"/>
	<path class="st1" d="M625.6,301.9c-1.9,3.7-3.2,6.6-4.9,9.3c-0.5,0.8-1.9,1.5-2.9,1.5c-13.6,0.1-27.2,0-40.8,0
		c-1.3,0-2.6-0.3-3.9-0.5c-5.1-1-7.6-4.2-5.5-8.8c4.4-9.7,9.1-19.4,14.5-28.5c3.8-6.5,10.8-9.5,18.1-9.9c11.4-0.6,22.8-0.6,34.2-0.3
		c6.2,0.2,8.3,3.7,6.5,9.6c-1.1,3.6-2.7,7.2-4.6,10.6c-2.8,5.1-7.1,7.8-13.2,7.7c-9.7-0.2-19.5,0.2-29.2,0c-3.5-0.1-4.4,1.9-4.7,4.5
		c-0.3,2.8,1.6,4.2,4.1,4.6c2.7,0.3,5.5,0.3,8.3,0.3C609.1,301.9,616.9,301.9,625.6,301.9z M606.4,283.4c0-0.1,0-0.2,0-0.3
		c3.1,0,6.4,0.6,9.3-0.2c1.9-0.5,3.5-2.9,4.6-4.8c0.3-0.4-2-3.4-3.1-3.4c-4.9-0.3-9.9-0.4-14.6,0.5c-2.1,0.4-4.1,3-5.7,5
		c-1.5,1.9-0.4,3.1,1.9,3.2C601.4,283.4,603.9,283.4,606.4,283.4z"/>
	<path class="st1" d="M314.1,274.5c1.7-3.3,2.8-6.1,4.4-8.6c0.5-0.8,2-1.2,3.1-1.2c12.8-0.1,25.5-0.1,38.3,0.1
		c8.6,0.1,12.1,5,8.6,12.9c-4.1,9.3-8.9,18.4-13.8,27.4c-2.8,5.1-7.7,7.7-13.5,7.7c-13.1,0.2-26.3,0.2-39.4,0.1c-6.6,0-8.7-3-6.3-9
		c1.7-4.3,3.9-8.5,6.6-12.4c4-5.8,10.1-8,16.9-8c8.1-0.1,16.1,0.1,24.2,0.1c3.8,0,5.6-1.5,5.4-4.6c-0.2-3.4-2.7-4.4-5.5-4.5
		c-7.8-0.1-15.7,0-23.5,0C318,274.5,316.4,274.5,314.1,274.5z M326.9,302C326.9,302,326.9,302,326.9,302c1.6,0,3.1-0.1,4.7,0
		c4.5,0.3,7.2-1.9,9-5.8c1.1-2.4,0.6-3.5-1.9-3.5c-4.9,0-9.9-0.2-14.8,0.3c-2.1,0.2-4.6,1.6-6,3.3c-2.4,2.7-1.1,5.4,2.6,5.7
		C322.6,302.2,324.8,302,326.9,302z"/>
	<path class="st1" d="M402.4,312.8c2.4-4.8,4.5-8.9,6.6-13.1c2.3-4.5,4.6-9,6.7-13.6c3-6.5,0.4-10.5-6.6-11.2
		c-6.9-0.7-11.6,1.3-14.6,8.2c-3.9,8.9-8.8,17.4-13,26.2c-1.4,2.8-3.1,3.8-6.1,3.7c-4.5-0.2-9.1-0.1-14.3-0.1c0.6-1.5,1-2.5,1.5-3.5
		c5.9-11.7,12.1-23.3,17.8-35.1c2.8-5.9,7.3-9.2,13.5-9.4c11.4-0.4,22.8-0.1,34.3,0.1c1.8,0,3.6,0.6,5.2,1.2c5.1,2,6.9,5.7,5.3,10.9
		c-0.6,1.9-1.4,3.9-2.3,5.7c-4.6,9.1-9.2,18.2-13.9,27.3c-0.5,1-1.4,2.5-2.2,2.5C414.5,312.9,408.8,312.8,402.4,312.8z"/>
</g>
</svg>
