<?xml version="1.0" encoding="utf-8"?>
<!-- Generator: Adobe Illustrator 19.0.0, SVG Export Plug-In . SVG Version: 6.00 Build 0)  -->
<svg version="1.1" id="Layer_1" xmlns="http://www.w3.org/2000/svg" xmlns:xlink="http://www.w3.org/1999/xlink" x="0px" y="0px"
	 viewBox="0 0 841.9 595.3" style="enable-background:new 0 0 841.9 595.3;" xml:space="preserve">
<style type="text/css">
	.st0{fill:#FFFFFF;}
	.st1{fill:#A0A0A0;}
</style>
<path d="M1156-1140.7c-2,3.9-4,7.7-6.5,12.5c-2.4-4.7-4.3-8.4-6.2-12.1c-0.3,0-0.6,0.1-0.9,0.1c0,3.8,0,7.6,0,11.7
	c-4.9,0-9.1,0-13.7,0c0-12.7,0-25.2,0-37.9c3.6-0.5,7-1.1,10.4-1.2c1.1,0,2.5,1.3,3.2,2.4c2.5,4,4.8,8.2,7.2,12.4
	c3.3-5,5.6-10.4,9.7-13.6c2.4-1.9,7.6-0.4,11.7-0.4c0,12.9,0,25.4,0,38.2c-4.5,0-8.9,0-13.7,0c0-4,0-7.9,0-11.7
	C1156.8-1140.4,1156.4-1140.6,1156-1140.7z"/>
<path d="M1390.6-1139c0.3,3.4,0.6,6.8,0.9,10.6c-5.2,0-10,0-15.3,0c0-12.8,0-25.3,0-37.8c8.3,0,17-1.1,25.3,0.3
	c10.1,1.7,13,13.4,5.7,20.8c-2.2,2.2-2,3.8-0.8,6c1.8,3.3,3.4,6.8,5.4,11c-5.1,0-9.5,0.2-13.9-0.1c-1.1-0.1-2.3-1.6-2.9-2.7
	c-1.3-2.6-2.2-5.4-3.3-8.1C1391.4-1139.1,1391-1139.1,1390.6-1139z M1389.4-1150.6c4.2,0.8,6.7,0.7,6.7-2.7c0-0.9-2.2-1.9-3.3-2.8
	C1391.8-1154.4,1390.7-1152.7,1389.4-1150.6z"/>
<path d="M1454.4-1128.2c-5.4,0-9.6,0.4-13.7-0.1c-2.9-0.4-5.7-2-8.6-2.8c-0.9-0.3-2.3-0.2-2.9,0.4c-4.9,5.2-10.9,1.3-17.1,2.9
	c4.6-13.3,8.9-25.7,13.4-38c0.3-0.9,2.1-1.8,3.2-1.8c3.4,0,6.8,0.4,11.5,0.7C1444.7-1154.9,1449.4-1142,1454.4-1128.2z"/>
<path d="M1201.1-1167.3c4.6,12.8,9.2,25.6,14.2,39.5c-6.2-0.5-11.8,0.5-15.6-1.7c-3.4-2-7.4-2.6-9-1.2c-4.9,4-10.1,1.9-15.1,2.5
	c-0.5,0.1-0.9-0.2-2-0.4c4.5-13.1,9-26,13.4-38.6C1191.8-1167.3,1195.9-1167.3,1201.1-1167.3z"/>
<path d="M1286.6-1128.7c4.6-13.3,9.1-26.1,13.5-38.9c4.5,0.2,8.6,0.4,14.1,0.7c4.4,12,9,24.8,14.2,38.8c-6.1-0.4-11.8,0.7-15.5-1.5
	c-3.4-2-7.3-2.7-8.9-1.4c-4.9,4-10.1,2-15.1,2.5C1288.3-1128.3,1287.8-1128.5,1286.6-1128.7z"/>
<path d="M1251.4-1128.7c0-12.6,0-25.2,0-38.1c7.6,0,15-0.5,22.4,0.1c7.6,0.6,12.2,7.3,11.8,15.8c-0.4,8.8-4.9,13.9-13.2,14.6
	c-1.9,0.2-3.9,0-6.2,0c0,2.7,0,5,0,7.6C1261.4-1128.7,1256.7-1128.7,1251.4-1128.7z M1264.4-1151.3c1.3,1.7,2.3,3.1,3.3,4.4
	c1.2-1.5,3.3-3.1,3.4-4.6c0-1.5-2.1-3.1-3.3-4.6C1266.8-1154.8,1265.8-1153.3,1264.4-1151.3z"/>
<path d="M1496.2-1167c8.9,0,17.3-0.1,25.7,0.1c0.9,0,2.3,1,2.4,1.8c0.6,3.2,0.8,6.4,1.1,9.5c-5.1,0-9.6,0-14.6,0
	c2.9,3,4.8,3.3,13.5,1.8c-0.4,3.5-0.7,6.8-1.1,10.6c-3.2,0-6.1-0.1-9.1,0.1c-1.1,0.1-2.1,1.1-3.1,1.6c1,0.8,2,2.2,3.1,2.3
	c3.9,0.3,7.9,0.1,12.3,0.1c-0.8,3.9-1.5,7.3-2.2,10.7c-9.5,0-18.6,0-28.1,0C1496.2-1141.1,1496.2-1153.8,1496.2-1167z"/>
<path d="M1455.8-1166.8c4.9,0,9.4,0,14.2,0c0,3.8-0.2,7.5,0.1,11.2c0.3,3.5,1.1,6.9,1.6,10.3c0.9,0,1.7,0,2.6,0
	c0.8-7.1,1.6-14.1,2.4-21.4c4.5,0,9.1,0,14.7,0c-0.5,5.3-0.3,10.7-1.6,15.7c-1.5,5.4-4.6,10.3-6.6,15.6c-2.2,5.9-5.7,8.4-12.3,7.6
	c-3.4-0.4-5.4-1.1-6.6-4.4c-1.5-3.9-3.3-7.6-5.4-11.2C1454.6-1150.8,1455.2-1158.5,1455.8-1166.8z"/>
<path d="M1372.2-1156.3c-2.2,0.1-4.1,0.2-6.6,0.3c0,9.1,0,18.1,0,27.5c-5.1,0-9.8,0-15,0c0-9.1,0-18.1,0-27.4
	c-2.5-0.1-4.6-0.2-7.4-0.4c0.5-3.8,0.9-7.4,1.3-11.1c9.3,0,18.3,0,27.6,0C1372.2-1164.2,1372.2-1160.5,1372.2-1156.3z"/>
<path d="M1543.8-1166.3c0,8.9,0,17.7,0,26.9c4.5,0,9,0,14.5,0c-0.3,3.8-0.7,7.9-1,11.6c-9.4,0-18.2,0-27.6,0c0-13,0-25.4,0-38.5
	C1533.9-1166.3,1538.8-1166.3,1543.8-1166.3z"/>
<path d="M1232.7-1166.5c0,9.1,0,17.9,0,27.1c4.6,0,9.3,0,14.6,0c-0.4,3.8-0.8,7.7-1.1,11.4c-9.2,0-17.9,0-27.3,0
	c0-13.1,0-25.6,0-38.5C1223.1-1166.5,1227.8-1166.5,1232.7-1166.5z"/>
<path class="st0" d="M1389.4-1150.6c1.3-2.2,2.4-3.8,3.4-5.5c1.2,0.9,3.3,1.9,3.3,2.8C1396.1-1149.9,1393.6-1149.8,1389.4-1150.6z"
	/>
<path class="st0" d="M1264.4-1151.3c1.4-2,2.3-3.4,3.3-4.9c1.2,1.5,3.4,3.1,3.3,4.6c0,1.6-2.1,3.1-3.4,4.6
	C1266.7-1148.3,1265.7-1149.6,1264.4-1151.3z"/>
<polygon class="st1" points="289.3,438.1 289.3,403.6 293.2,403.6 293.2,424.2 313,403.6 318,403.6 303.2,418.7 318.6,438.1 
	313.8,438.1 300.5,421.4 293.2,428.8 293.2,438.1 "/>
<polygon class="st1" points="339.9,438.1 339.9,424.4 325.6,403.6 330.3,403.6 341.9,420.8 353.6,403.6 358.1,403.6 343.8,424.4 
	343.8,438.1 "/>
<rect x="369.1" y="403.6" class="st1" width="3.9" height="34.4"/>
<polygon class="st1" points="399.3,438.3 384.5,403.6 388.8,403.6 401.1,433.3 413.4,403.6 417.6,403.6 402.8,438.3 "/>
<path class="st1" d="M436.6,438.1v-3l12.5-11c2.7-2.4,4.6-4.3,5.6-5.9c1-1.6,1.6-3.2,1.6-4.9c0-2-0.7-3.6-2-4.8
	c-1.3-1.2-3-1.8-4.9-1.8c-1.9,0-3.5,0.5-4.9,1.4c-1.4,1-2.9,2.4-4.3,4.5l-2.9-2.1c1.7-2.5,3.4-4.3,5.3-5.5c1.9-1.2,4.2-1.8,7.1-1.8
	c3.1,0,5.6,0.9,7.6,2.8c2,1.9,3,4.2,3,7.1c0,2.4-0.6,4.5-1.9,6.3c-1.3,1.8-3.5,4.2-6.8,7.1l-9.2,8.2h18.2v3.5H436.6z"/>
<path class="st1" d="M478.1,430.9c2,2.8,4.5,4.2,7.6,4.2c3.1,0,5.6-1.4,7.5-4.2c1.9-2.8,2.9-6.1,2.9-10.1c0-3.9-1-7.3-2.9-10.1
	c-1.9-2.8-4.5-4.2-7.6-4.2c-3.1,0-5.6,1.4-7.6,4.2c-1.9,2.8-2.9,6.1-2.9,10.1C475.2,424.7,476.2,428.1,478.1,430.9 M496.2,433.5
	c-2.7,3.5-6.2,5.2-10.5,5.2c-4.3,0-7.8-1.7-10.5-5.1c-2.7-3.4-4-7.7-4-12.7c0-5,1.4-9.2,4.1-12.6c2.7-3.5,6.2-5.2,10.5-5.2
	c4.3,0,7.8,1.7,10.5,5.1c2.7,3.4,4,7.6,4,12.7C500.2,425.8,498.9,430,496.2,433.5"/>
<polygon class="st1" points="516.5,438.1 516.5,407.4 510,409.4 509.1,406.3 517.5,403.4 520.3,403.4 520.3,438.1 "/>
<polygon class="st1" points="536.5,438.1 552,407.2 533.1,407.2 533.1,403.6 556.4,403.6 556.4,406.5 540.8,438.1 "/>
<path class="st1" d="M666,290.6c-9.3-0.5-14.6-11.5-14-22.8c1.1-19.8,17.7-39.9,17.7-39.9c3.9,3.5,15.5,22.7,14.9,37.3
	C684,279.7,675.3,291.1,666,290.6 M677,221.4c4-4.7,6.7-7.4,6.1-10.6c-0.6-3.2-11.6-5.5-16.4-1c-14.4-11.4-11.5,2-9.4,4.9
	c-17,12-28.5,43.5-19.3,68.1c9.1,24,36.4,27,50.7,10.1C701.5,278,699.2,250.5,677,221.4"/>
<path class="st1" d="M196.1,370.6l4.7-5.6c3.2,2.7,6.7,4.4,10.8,4.4c3.3,0,5.2-1.3,5.2-3.4v-0.1c0-2-1.2-3-7.3-4.6
	c-7.3-1.9-12-3.9-12-11v-0.1c0-6.6,5.3-10.9,12.6-10.9c5.3,0,9.7,1.7,13.4,4.6l-4.1,6c-3.2-2.2-6.3-3.6-9.4-3.6
	c-3,0-4.6,1.4-4.6,3.1v0.1c0,2.4,1.5,3.1,7.8,4.7c7.3,1.9,11.5,4.5,11.5,10.8v0.1c0,7.2-5.5,11.2-13.3,11.2
	C206,376.3,200.5,374.4,196.1,370.6"/>
<path class="st1" d="M262.6,357.9v-0.1c0-6.2-4.5-11.4-10.9-11.4c-6.4,0-10.8,5.1-10.8,11.2v0.1c0,6.2,4.5,11.4,10.9,11.4
	C258.1,369.1,262.6,364.1,262.6,357.9 M232.5,357.9v-0.1c0-10.3,8.1-18.7,19.2-18.7c11.1,0,19.1,8.3,19.1,18.6v0.1
	c0,10.3-8.1,18.7-19.2,18.7C240.5,376.4,232.5,368.1,232.5,357.9"/>
<polygon class="st1" points="280,339.7 287.3,339.7 304.3,361.9 304.3,339.7 312.1,339.7 312.1,375.8 305.3,375.8 287.8,352.9 
	287.8,375.8 280,375.8 "/>
<path class="st1" d="M322.2,357.9v-0.1c0-10.3,8-18.7,18.9-18.7c6.5,0,10.4,1.8,14.2,4.9l-5,6c-2.8-2.3-5.3-3.7-9.4-3.7
	c-5.8,0-10.4,5.1-10.4,11.2v0.1c0,6.6,4.5,11.5,10.9,11.5c2.9,0,5.5-0.7,7.5-2.2v-5.2h-8V355h15.7v15.7c-3.7,3.1-8.8,5.7-15.4,5.7
	C329.9,376.4,322.2,368.5,322.2,357.9"/>
<path class="st1" d="M384.3,357.9v-0.1c0-10.3,7.7-18.7,18.8-18.7c6.8,0,10.9,2.3,14.2,5.6l-5.1,5.8c-2.8-2.5-5.6-4.1-9.2-4.1
	c-6.1,0-10.5,5.1-10.5,11.2v0.1c0,6.2,4.3,11.4,10.5,11.4c4.1,0,6.7-1.7,9.5-4.2l5.1,5.1c-3.7,4-7.8,6.4-14.8,6.4
	C392.2,376.4,384.3,368.2,384.3,357.9"/>
<path class="st1" d="M454.5,357.9v-0.1c0-6.2-4.5-11.4-10.9-11.4s-10.8,5.1-10.8,11.2v0.1c0,6.2,4.5,11.4,10.9,11.4
	C450.1,369.1,454.5,364.1,454.5,357.9 M424.5,357.9v-0.1c0-10.3,8.1-18.7,19.2-18.7c11.1,0,19.1,8.3,19.1,18.6v0.1
	c0,10.3-8.1,18.7-19.2,18.7C432.4,376.4,424.5,368.1,424.5,357.9"/>
<polygon class="st1" points="472,339.7 479.3,339.7 496.2,361.9 496.2,339.7 504.1,339.7 504.1,375.8 497.3,375.8 479.8,352.9 
	479.8,375.8 472,375.8 "/>
<polygon class="st1" points="523.5,347 512.5,347 512.5,339.7 542.4,339.7 542.4,347 531.4,347 531.4,375.8 523.5,375.8 "/>
<polygon class="st1" points="551.6,339.7 578.8,339.7 578.8,346.8 559.5,346.8 559.5,354.1 576.5,354.1 576.5,361.2 559.5,361.2 
	559.5,368.8 579.1,368.8 579.1,375.8 551.6,375.8 "/>
<path class="st1" d="M586.7,370.6l4.7-5.6c3.2,2.7,6.7,4.4,10.8,4.4c3.2,0,5.2-1.3,5.2-3.4v-0.1c0-2-1.2-3-7.3-4.6
	c-7.3-1.9-12-3.9-12-11v-0.1c0-6.6,5.3-10.9,12.6-10.9c5.3,0,9.7,1.7,13.4,4.6l-4.1,6c-3.2-2.2-6.3-3.6-9.4-3.6s-4.6,1.4-4.6,3.1
	v0.1c0,2.4,1.5,3.1,7.8,4.7c7.3,1.9,11.5,4.5,11.5,10.8v0.1c0,7.2-5.5,11.2-13.3,11.2C596.6,376.3,591,374.4,586.7,370.6"/>
<polygon class="st1" points="632.9,347 621.9,347 621.9,339.7 651.8,339.7 651.8,347 640.8,347 640.8,375.8 632.9,375.8 "/>
<path class="st1" d="M143.5,173.6c-32.1-2.3-67.6,24.3-66.2,58.7c0.1,3.3,2.9,6.3,6.9,6.3c5,0,19.5-0.6,19.5-0.6S75,260.8,75,287.3
	c0,14,10.5,30.7,32.4,30.7c30.7,0,53.6-25.1,53.5-46.4c0-1.6-1.9-3.9-4.9-0.3c-4.8,5.8-30.3,32-55.5,32c-8.5,0-15.8-4.8-15.8-14.9
	c0-13.2,21-39,57-49.1c8.8-2.6,9.6-14.9-1.7-15.5c-11-0.5-49.1,3.7-51.9,3.7s-3-0.6-2-3.1c1.3-3.3,15.3-27.8,57.2-32.4
	C157.6,190.9,156.2,174.6,143.5,173.6"/>
<path class="st1" d="M188.9,213.9c0-8.3-12.4-13.4-17-1.7c-9,22.7-11.7,91.4,18.3,91.4c13.2,0,30-28.9,30-57
	c0-23.2-9.5-38.4-11.5-41.2c-2-2.7-4.8-1.3-4.4,3.8c0.4,5.1,1.8,52.5-13,69.7c-5.9,6.4-10.2-0.3-10.8-6.6
	C178.6,253.9,188.9,225.9,188.9,213.9"/>
<path class="st1" d="M326,287.7c-8.4,0-13.1-10.9-13.1-22.7c0-20.8,15-39.8,15-39.8c4.1,5.3,14,20.1,14,35.1
	C341.9,275.3,334.4,287.7,326,287.7 M332.7,218.7c0,0,4.8-6.5,1.9-10.1c-3.2-4.1-13.5-5.4-23.2,5.4c-12.7,14.3-21.6,44.3-12,69.6
	c9.2,24.1,35,26.2,47,7.9C357,275.1,354.2,247.9,332.7,218.7"/>
<path class="st1" d="M248.1,243.3c0.7-9.4,1.5-19.1,1.5-19.1s21-5.3,28.2-4.6c6.2,0.6,7.5,3.3,4.4,8.2
	C274.6,239.4,257.3,243.5,248.1,243.3 M293.1,305.5c-9-12.5-20.2-37.4-37.5-52.5c17.5-1.1,39.4-14.7,39.4-29.3
	c0-10.8-11.2-18.5-25.7-18.5c-14.5,0-30.6,4.9-36.6,8.6c-7.9,4.6-2,15.5,5.3,12.5c0,0-2.8,12.9-3.5,19.7c-6-0.7-7.2,0.4-6.8,1.7
	c0.4,1.3,2.9,2.4,5.9,6.1c-0.9,8.1-2.6,44.1-2.2,47.2c0.4,3.2,2.3,3.7,5,0.4c2.4-2.9,7.5-10.1,9.9-36.9c2.8,2.4,10.3,12.5,19.5,24.3
	c13.5,17.3,17.9,18.5,23.5,20.5C292.2,310.3,295.3,308.6,293.1,305.5"/>
<path class="st1" d="M516.6,207.7c0.5,18.7-16,48.4-17,70.1c-0.8,15.8,2.1,22.2,3.4,24.3c1.4,2.2,4.5,2.4,5.3-1.6
	c2.5-11.9,19.4-43.1,21.6-68.2c1.3-15.4-3.4-24.8-9-26.6C518.5,204.9,516.6,205.2,516.6,207.7"/>
<path class="st1" d="M578,205.3c-23,0-39.6,8.2-39.6,26.7c0,11.4,8.5,19.3,22,21.5c7.8,1.5,15.5,2,18.3,3.1c5,1.8-7,7.6-25.8,20.4
	c-12.8,8.7-22.2,17.9-27.2,27.6c-1.7,3.4,0.6,6.6,4.2,4.1c7-4.8,22.4-12.9,37.4-21.1c14.2-7.8,27.6-16.4,27.6-27.1
	c0-9.7-7.3-13.3-12.9-14c-9.7-1.1-30.7-0.2-30.7-12.4c0-4.5,6-10.5,25.3-10.5C591.6,223.4,590.1,205.3,578,205.3"/>
<path class="st1" d="M606.9,208.6c7.5,14.5-5.3,53.8-5.3,68.7c0,14.9,1.7,20.2,5.6,25c2,2.5,4.7,1,4.9-1.7
	c1.2-13.2,15.4-48.9,16.3-65.5c1.2-21.1-9.3-29.3-15.4-29.9C609.7,205.1,605.2,205.7,606.9,208.6"/>
<path class="st1" d="M612.1,188.3c-0.4,13.8,22.6,16,22.6-0.8c0-14.7-12.3-26.8-14.7-28.8c-3.8-3.1-9.3-2.6-8,2.5
	C614.9,171.7,612.2,183.4,612.1,188.3"/>
<path class="st1" d="M769.6,302.2c-3-18.5,1.1-42.3,1.1-64.7c0-17.1-14.2-25.9-22.7-25.9c-11,0-17.5,4.9-17.5,4.9
	c0.1-3.3,0.7-8.3,0.6-9.8c-0.1-1.8-2.3-1.8-5.4-0.1c-17.2,10.7-19.7,41.5-19.7,62.9c0,21.3,3.4,28.9,3.8,31.8c0.3,2.7,3.7,3.2,5,0.7
	c9.2-17.8,10.2-50.3,13.4-68.4c4.3-5.9,22.1-7,22.8,7.1c0.7,14.4-0.6,50.6,14,63.3C767,305.7,770.1,304.9,769.6,302.2"/>
<path class="st1" d="M371.2,227.3c0.4-34.4,18.3-45.2,28-45.2c13.6,0,19.2,10.4,20.2,15c0.9,4.6,6.1,8.3,7.7,0.7
	c1.7-7.5,17.7-30.5,37.4-30.5c18,0,24.3,18.6,23.7,34.4c-1.5,43-56.9,77.4-64.2,99.1C417.5,287.7,370.7,268.7,371.2,227.3
	 M470.9,156.6c-16.2,0-35.3,12-46.9,31.8c-3.1-7.2-14.3-15-27.5-15c-10.7,0-40.6,13.3-40.6,56.4c0,55.6,56.2,67,67.6,84.2
	c0.8,1.2,3.3,2.1,4.3-0.8c9.1-26.8,79.4-57,79.4-111.5C507,171.4,487.1,156.6,470.9,156.6"/>
</svg>
