<svg version="1.1" id="lavina" xmlns="http://www.w3.org/2000/svg" xmlns:xlink="http://www.w3.org/1999/xlink" x="0px" y="0px"
	 viewBox="0 0 841.9 595.3" style="enable-background:new 0 0 841.9 595.3;" xml:space="preserve">
<style type="text/css">
	.st0{fill:#A0A0A0;}
</style>
<g>
	<path class="st0" d="M61.6,230.8c157.1-159.4,506.1-169.4,683.8-3.6c0.5,0.4,0.9,1,1,1.9c-7.3-5.1-14.6-10.3-22.1-15.2
		c-73.1-48.6-161.5-75.1-248.8-84.5C215.5,101.4,66,228.9,61.6,230.8"/>
</g>
<g>
	<path class="st0" d="M149.4,443.7h-11.9v8.9c0,0.9-0.7,1.6-1.6,1.6h-3.2c-0.9,0-1.7-0.7-1.7-1.6V431c0-0.9,0.7-1.6,1.7-1.6h3.2
		c0.9,0,1.6,0.7,1.6,1.6v7.8h11.9V431c0-0.9,0.7-1.6,1.6-1.6h3.2c0.9,0,1.7,0.7,1.7,1.6v21.5c0,0.9-0.7,1.6-1.7,1.6H151
		c-0.9,0-1.6-0.7-1.6-1.6V443.7z"/>
	<path class="st0" d="M173.3,428.9c8.8,0,13.9,3.7,13.9,12.9c0,9.2-5.1,12.9-13.9,12.9c-8.8,0-13.9-3.7-13.9-12.9
		C159.4,432.6,164.5,428.9,173.3,428.9z M165.9,441.7c0,5.3,2.1,8.2,7.4,8.2c5.3,0,7.4-2.9,7.4-8.2c0-5.3-2.1-8.2-7.4-8.2
		C168,433.5,165.9,436.4,165.9,441.7z"/>
	<path class="st0" d="M190.7,431c0-0.9,0.7-1.6,1.6-1.6h14c4.4,0,9,1.9,9,7c0,1.8-0.6,3.1-2.3,4.6c2.3,1.2,3.3,3.4,3.3,5.7
		c0,4.9-4.3,7.4-9.1,7.4h-14.8c-0.9,0-1.6-0.7-1.6-1.6V431z M197.2,434v4.9h9.2c1.4,0,2.4-0.9,2.4-2.5c0-1.6-1-2.5-2.4-2.5H197.2z
		 M197.2,443.5v5.9h9.9c1.8,0,2.8-1.2,2.8-3s-0.9-3-2.8-3H197.2z"/>
	<path class="st0" d="M222.2,436.1c1.4-5.5,6.4-6.7,11.4-6.7h9.3c0.8,0,1.5,0.7,1.5,1.6v21.5c0,0.9-0.7,1.6-1.6,1.6h-3.3
		c-0.9,0-1.6-0.7-1.6-1.6v-4.3h-12.3l-1.2,4.3c-0.2,0.9-1.1,1.6-2,1.6H219c-0.9,0-1.4-0.7-1.2-1.6L222.2,436.1z M226.9,443.3h11v-9
		H233c-2.2,0-4,1.3-4.6,3.5L226.9,443.3z"/>
	<path class="st0" d="M261.7,431c0-0.9,0.7-1.6,1.6-1.6H280c0.9,0,1.6,0.7,1.6,1.6v1.6c0,0.9-0.7,1.6-1.6,1.6h-11.8v18.3
		c0,0.9-0.7,1.6-1.6,1.6h-3.3c-0.9,0-1.6-0.7-1.6-1.6V431z"/>
	<path class="st0" d="M286.7,436.1c1.4-5.5,6.4-6.7,11.4-6.7h9.3c0.8,0,1.5,0.7,1.5,1.6v21.5c0,0.9-0.7,1.6-1.6,1.6h-3.3
		c-0.9,0-1.6-0.7-1.6-1.6v-4.3h-12.3l-1.2,4.3c-0.2,0.9-1.1,1.6-2,1.6h-3.4c-0.9,0-1.4-0.7-1.2-1.6L286.7,436.1z M291.5,443.3h11v-9
		h-4.9c-2.2,0-4,1.3-4.6,3.5L291.5,443.3z"/>
	<path class="st0" d="M336.2,454.1h-3.3c-0.9,0-1.6-0.7-1.6-1.6v-18.2H327c-2.2,0-4,1.3-4.6,3.5l-4,14.8c-0.2,0.9-1.1,1.6-2,1.6H313
		c-0.8,0-1.3-0.7-1.1-1.4l4.4-16.6c1.5-5.5,6.4-6.7,11.4-6.7h8.6c0.8,0,1.4,0.8,1.4,1.6v21.5C337.7,453.4,337,454.1,336.2,454.1z"/>
	<path class="st0" d="M345,436.1c1.4-5.5,6.4-6.7,11.4-6.7h9.3c0.8,0,1.5,0.7,1.5,1.6v21.5c0,0.9-0.7,1.6-1.6,1.6h-3.3
		c-0.9,0-1.6-0.7-1.6-1.6v-4.3h-12.3l-1.2,4.3c-0.2,0.9-1.1,1.6-2,1.6h-3.4c-0.9,0-1.4-0.7-1.2-1.6L345,436.1z M349.7,443.3h11v-9
		h-4.9c-2.2,0-4,1.3-4.6,3.5L349.7,443.3z"/>
	<path class="st0" d="M373.8,454.1c-0.9,0-1.6-0.7-1.6-1.7V431c0-0.9,0.7-1.7,1.6-1.7h3.3c0.9,0,1.6,0.7,1.6,1.7v8.3h3.7
		c2,0,3.5-1,4.8-3.5l2.7-4.8c0.6-1.1,1.6-1.7,2.5-1.7h4c0.9,0,1.1,0.7,0.5,1.7l-3.7,6.8c-0.9,1.6-2,3.3-4.5,3.8
		c1.7,0.4,3.5,2.5,4.5,4l4.3,6.9c0.6,0.9,0.3,1.6-0.6,1.6h-4c-0.9,0-2.1-0.7-2.7-1.6l-3-4.8c-1.3-2.1-2.6-3.5-4.8-3.5h-3.7v8.4
		c0,0.9-0.7,1.6-1.6,1.6H373.8z"/>
	<path class="st0" d="M421.6,429.4c0.9,0,1.6,0.7,1.6,1.6v1.6c0,0.9-0.7,1.6-1.6,1.6h-7.7v18.3c0,0.9-0.7,1.6-1.6,1.6h-3.3
		c-0.9,0-1.6-0.7-1.6-1.6v-18.3h-7.7c-0.9,0-1.6-0.7-1.6-1.6V431c0-0.9,0.7-1.6,1.6-1.6H421.6z"/>
	<path class="st0" d="M446.6,454.1c-0.9,0-1.6-0.7-1.6-1.6v-16l-9,16c-0.5,0.9-1.6,1.6-2.5,1.6h-5.7c-0.9,0-1.6-0.7-1.6-1.6V431
		c0-0.9,0.7-1.6,1.6-1.6h3c0.9,0,1.6,0.7,1.6,1.6v17.3l9.8-17.2c0.5-0.8,1.5-1.6,2.4-1.6h5.1c0.9,0,1.6,0.7,1.6,1.6v21.5
		c0,0.9-0.7,1.6-1.6,1.6H446.6z"/>
	<path class="st0" d="M457.8,454.1c-0.9,0-1.6-0.7-1.6-1.7V431c0-0.9,0.7-1.7,1.6-1.7h3.3c0.9,0,1.6,0.7,1.6,1.7v8.3h3.7
		c2,0,3.5-1,4.8-3.5l2.7-4.8c0.6-1.1,1.6-1.7,2.5-1.7h4c0.9,0,1.1,0.7,0.5,1.7l-3.7,6.8c-0.9,1.6-2,3.3-4.5,3.8
		c1.7,0.4,3.5,2.5,4.5,4l4.3,6.9c0.6,0.9,0.3,1.6-0.6,1.6h-4c-0.9,0-2.1-0.7-2.6-1.6l-3-4.8c-1.3-2.1-2.6-3.5-4.8-3.5h-3.7v8.4
		c0,0.9-0.7,1.6-1.6,1.6H457.8z"/>
	<path class="st0" d="M486.6,436.1c1.4-5.5,6.4-6.7,11.4-6.7h9.3c0.8,0,1.5,0.7,1.5,1.6v21.5c0,0.9-0.7,1.6-1.6,1.6h-3.3
		c-0.9,0-1.6-0.7-1.6-1.6v-4.3H490l-1.2,4.3c-0.2,0.9-1.1,1.6-2.1,1.6h-3.4c-0.9,0-1.4-0.7-1.2-1.6L486.6,436.1z M491.3,443.3h11v-9
		h-4.9c-2.2,0-4,1.3-4.6,3.5L491.3,443.3z"/>
	<path class="st0" d="M540.8,429.4c6.6,0,10.4,3,10.4,9.6c0,6.6-3.9,9.6-10.4,9.6h-8.3v3.9c0,0.9-0.7,1.6-1.6,1.6h-3.3
		c-0.9,0-1.6-0.7-1.6-1.6V431c0-0.9,0.7-1.6,1.6-1.6H540.8z M532.6,434.3v9.5h6.3c3.4,0,5.9-0.7,5.9-4.7c0-4-2.5-4.7-5.9-4.7H532.6z
		"/>
	<path class="st0" d="M566.9,428.9c8.8,0,13.9,3.7,13.9,12.9c0,9.2-5,12.9-13.9,12.9c-8.8,0-13.9-3.7-13.9-12.9
		C553,432.6,558.1,428.9,566.9,428.9z M559.5,441.7c0,5.3,2.1,8.2,7.4,8.2c5.3,0,7.4-2.9,7.4-8.2c0-5.3-2.1-8.2-7.4-8.2
		C561.6,433.5,559.5,436.4,559.5,441.7z"/>
	<path class="st0" d="M593.3,434.1c-1.6,0-3.1,0.6-3.8,2.1c-0.6,1.2-1.3,1.6-2.3,1.6h-2c-0.5,0-1.8-0.3-1.8-1.9
		c0-4.1,5.1-6.7,9.4-6.7h5.3c5.4,0,10,1.7,10,7.6c0,1.9-0.7,3.7-2.4,4.9c2,1.2,2.7,2.9,2.7,5c0,5.5-3.7,7.5-9.6,7.5h-6.6
		c-4.3,0-9.4-2.6-9.4-6.9c0-1.6,1.3-1.9,1.8-1.9h2c1,0,1.8,0.5,2.5,1.9c0.6,1.3,2.1,2,3.7,2h5.4c2.4,0,3.7-0.6,3.7-2.7
		c0-2-1.4-2.6-3.7-2.6h-4.4c-0.9,0-1.6-0.7-1.6-1.6V441c0-0.8,0.7-1.6,1.6-1.6h3.9c2.7,0,4-0.7,4-2.6c0-1.9-1.3-2.6-4-2.6H593.3z"/>
	<path class="st0" d="M611.9,431c0-0.9,0.7-1.6,1.6-1.6h14c4.4,0,9,1.9,9,7c0,1.8-0.6,3.1-2.3,4.6c2.3,1.2,3.3,3.4,3.3,5.7
		c0,4.9-4.3,7.4-9.2,7.4h-14.8c-0.9,0-1.6-0.7-1.6-1.6V431z M618.4,434v4.9h9.2c1.4,0,2.4-0.9,2.4-2.5c0-1.6-1-2.5-2.4-2.5H618.4z
		 M618.4,443.5v5.9h9.9c1.8,0,2.8-1.2,2.8-3s-0.9-3-2.8-3H618.4z"/>
	<path class="st0" d="M643.3,436.1c1.4-5.5,6.4-6.7,11.4-6.7h9.3c0.8,0,1.5,0.7,1.5,1.6v21.5c0,0.9-0.7,1.6-1.6,1.6h-3.3
		c-0.9,0-1.6-0.7-1.6-1.6v-4.3h-12.3l-1.2,4.3c-0.2,0.9-1.1,1.6-2,1.6h-3.4c-0.9,0-1.4-0.7-1.2-1.6L643.3,436.1z M648.1,443.3h11v-9
		h-4.9c-2.2,0-4,1.3-4.6,3.5L648.1,443.3z"/>
	<path class="st0" d="M670.5,431c0-0.9,0.7-1.6,1.6-1.6h16.7c0.9,0,1.6,0.7,1.6,1.6v1.6c0,0.9-0.7,1.6-1.6,1.6H677v18.3
		c0,0.9-0.7,1.6-1.6,1.6h-3.2c-0.9,0-1.6-0.7-1.6-1.6V431z"/>
</g>
<g>
	<polygon class="st0" points="97.7,240.3 53,240.3 53,390.4 82.3,390.4 97.7,390.4 131.2,390.4 147.8,347.7 97.7,347.7 	"/>
	<polygon class="st0" points="388.9,240.6 358.3,330.2 321.2,240.3 273.7,240.6 331.4,390.4 383.6,390.4 438.1,240.6 	"/>
	<polygon class="st0" points="460.2,240.3 403.9,390.4 450.8,390.4 503.2,240.3 	"/>
	<polygon class="st0" points="635.4,240.3 603.7,324.6 568.4,240.3 526.2,240.3 471.3,390.4 520.7,390.4 550,315.3 575.8,390.4 
		625.5,390.4 680.3,240.3 	"/>
	<path class="st0" d="M752.9,240.3H704l-56.2,150.1h51.2l7.1-19.7h50.1l7.2,19.3l0.1,0.4h48.1L752.9,240.3z M718.9,335l11.8-32.6
		l12.2,32.6H718.9z"/>
	<path class="st0" d="M204.2,240.3L148,390.4h51.2l7.1-19.7h50.1l7.2,19.4h0l0,0l0.1,0.2h48.2l-58.7-150.1H204.2z M219.2,335
		l11.8-32.6l12.2,32.6H219.2z"/>
</g>
</svg>
