<?xml version="1.0" encoding="utf-8"?>
<!-- Generator: Adobe Illustrator 19.0.0, SVG Export Plug-In . SVG Version: 6.00 Build 0)  -->
<svg version="1.1" id="Layer_1" xmlns="http://www.w3.org/2000/svg" xmlns:xlink="http://www.w3.org/1999/xlink" x="0px" y="0px"
	 viewBox="0 0 841.9 595.3" style="enable-background:new 0 0 841.9 595.3;" xml:space="preserve">
<style type="text/css">
	.st0{fill:#FFFFFF;}
	.st1{fill:#A0A0A0;}
</style>
<path d="M1156-1140.7c-2,3.9-4,7.7-6.5,12.5c-2.4-4.7-4.3-8.4-6.2-12.1c-0.3,0-0.6,0.1-0.9,0.1c0,3.8,0,7.6,0,11.7
	c-4.9,0-9.1,0-13.7,0c0-12.7,0-25.2,0-37.9c3.6-0.5,7-1.1,10.4-1.2c1.1,0,2.5,1.3,3.2,2.4c2.5,4,4.8,8.2,7.2,12.4
	c3.3-5,5.6-10.4,9.7-13.6c2.4-1.9,7.6-0.4,11.7-0.4c0,12.9,0,25.4,0,38.2c-4.5,0-8.9,0-13.7,0c0-4,0-7.9,0-11.7
	C1156.8-1140.4,1156.4-1140.6,1156-1140.7z"/>
<path d="M1390.6-1139c0.3,3.4,0.6,6.8,0.9,10.6c-5.2,0-10,0-15.3,0c0-12.8,0-25.3,0-37.8c8.3,0,17-1.1,25.3,0.3
	c10.1,1.7,13,13.4,5.7,20.8c-2.2,2.2-2,3.8-0.8,6c1.8,3.3,3.4,6.8,5.4,11c-5.1,0-9.5,0.2-13.9-0.1c-1.1-0.1-2.3-1.6-2.9-2.7
	c-1.3-2.6-2.2-5.4-3.3-8.1C1391.4-1139.1,1391-1139.1,1390.6-1139z M1389.4-1150.6c4.2,0.8,6.7,0.7,6.7-2.7c0-0.9-2.2-1.9-3.3-2.8
	C1391.8-1154.4,1390.7-1152.7,1389.4-1150.6z"/>
<path d="M1454.4-1128.2c-5.4,0-9.6,0.4-13.7-0.1c-2.9-0.4-5.7-2-8.6-2.8c-0.9-0.3-2.3-0.2-2.9,0.4c-4.9,5.2-10.9,1.3-17.1,2.9
	c4.6-13.3,8.9-25.7,13.4-38c0.3-0.9,2.1-1.8,3.2-1.8c3.4,0,6.8,0.4,11.5,0.7C1444.7-1154.9,1449.4-1142,1454.4-1128.2z"/>
<path d="M1201.1-1167.3c4.6,12.8,9.2,25.6,14.2,39.5c-6.2-0.5-11.8,0.5-15.6-1.7c-3.4-2-7.4-2.6-9-1.2c-4.9,4-10.1,1.9-15.1,2.5
	c-0.5,0.1-0.9-0.2-2-0.4c4.5-13.1,9-26,13.4-38.6C1191.8-1167.3,1195.9-1167.3,1201.1-1167.3z"/>
<path d="M1286.6-1128.7c4.6-13.3,9.1-26.1,13.5-38.9c4.5,0.2,8.6,0.4,14.1,0.7c4.4,12,9,24.8,14.2,38.8c-6.1-0.4-11.8,0.7-15.5-1.5
	c-3.4-2-7.3-2.7-8.9-1.4c-4.9,4-10.1,2-15.1,2.5C1288.3-1128.3,1287.8-1128.5,1286.6-1128.7z"/>
<path d="M1251.4-1128.7c0-12.6,0-25.2,0-38.1c7.6,0,15-0.5,22.4,0.1c7.6,0.6,12.2,7.3,11.8,15.8c-0.4,8.8-4.9,13.9-13.2,14.6
	c-1.9,0.2-3.9,0-6.2,0c0,2.7,0,5,0,7.6C1261.4-1128.7,1256.7-1128.7,1251.4-1128.7z M1264.4-1151.3c1.3,1.7,2.3,3.1,3.3,4.4
	c1.2-1.5,3.3-3.1,3.4-4.6c0-1.5-2.1-3.1-3.3-4.6C1266.8-1154.8,1265.8-1153.3,1264.4-1151.3z"/>
<path d="M1496.2-1167c8.9,0,17.3-0.1,25.7,0.1c0.9,0,2.3,1,2.4,1.8c0.6,3.2,0.8,6.4,1.1,9.5c-5.1,0-9.6,0-14.6,0
	c2.9,3,4.8,3.3,13.5,1.8c-0.4,3.5-0.7,6.8-1.1,10.6c-3.2,0-6.1-0.1-9.1,0.1c-1.1,0.1-2.1,1.1-3.1,1.6c1,0.8,2,2.2,3.1,2.3
	c3.9,0.3,7.9,0.1,12.3,0.1c-0.8,3.9-1.5,7.3-2.2,10.7c-9.5,0-18.6,0-28.1,0C1496.2-1141.1,1496.2-1153.8,1496.2-1167z"/>
<path d="M1455.8-1166.8c4.9,0,9.4,0,14.2,0c0,3.8-0.2,7.5,0.1,11.2c0.3,3.5,1.1,6.9,1.6,10.3c0.9,0,1.7,0,2.6,0
	c0.8-7.1,1.6-14.1,2.4-21.4c4.5,0,9.1,0,14.7,0c-0.5,5.3-0.3,10.7-1.6,15.7c-1.5,5.4-4.6,10.3-6.6,15.6c-2.2,5.9-5.7,8.4-12.3,7.6
	c-3.4-0.4-5.4-1.1-6.6-4.4c-1.5-3.9-3.3-7.6-5.4-11.2C1454.6-1150.8,1455.2-1158.5,1455.8-1166.8z"/>
<path d="M1372.2-1156.3c-2.2,0.1-4.1,0.2-6.6,0.3c0,9.1,0,18.1,0,27.5c-5.1,0-9.8,0-15,0c0-9.1,0-18.1,0-27.4
	c-2.5-0.1-4.6-0.2-7.4-0.4c0.5-3.8,0.9-7.4,1.3-11.1c9.3,0,18.3,0,27.6,0C1372.2-1164.2,1372.2-1160.5,1372.2-1156.3z"/>
<path d="M1543.8-1166.3c0,8.9,0,17.7,0,26.9c4.5,0,9,0,14.5,0c-0.3,3.8-0.7,7.9-1,11.6c-9.4,0-18.2,0-27.6,0c0-13,0-25.4,0-38.5
	C1533.9-1166.3,1538.8-1166.3,1543.8-1166.3z"/>
<path d="M1232.7-1166.5c0,9.1,0,17.9,0,27.1c4.6,0,9.3,0,14.6,0c-0.4,3.8-0.8,7.7-1.1,11.4c-9.2,0-17.9,0-27.3,0
	c0-13.1,0-25.6,0-38.5C1223.1-1166.5,1227.8-1166.5,1232.7-1166.5z"/>
<path class="st0" d="M1389.4-1150.6c1.3-2.2,2.4-3.8,3.4-5.5c1.2,0.9,3.3,1.9,3.3,2.8C1396.1-1149.9,1393.6-1149.8,1389.4-1150.6z"
	/>
<path class="st0" d="M1264.4-1151.3c1.4-2,2.3-3.4,3.3-4.9c1.2,1.5,3.4,3.1,3.3,4.6c0,1.6-2.1,3.1-3.4,4.6
	C1266.7-1148.3,1265.7-1149.6,1264.4-1151.3z"/>
<g>
	<path class="st1" d="M445.8,227.3c3.9-0.3,7.9-0.5,11.7-1c5.3-0.7,10.4-1.7,13.6-7.4c0.7,2.9,1.3,5.3,1.9,7.9
		c2.5,0.2,4.5-0.9,6.1-2.5c4.6-4.5,5.3-10.1,3.9-16.1c-0.8-3.5-2.4-6.6-4.8-9.2c-1.4-1.5-1.1-2.3,0.5-3.4c1.5-1,2.6-2.5,4-3.9
		c3.5,3.6,6.1,8.2,7.5,13.3c1.9,6.7,2.1,13.5-0.6,20c-2.8,6.7-7.7,10.9-15.5,11.8c0,2.1,0.1,4.2,0,6.3c-0.4,11.6-3.5,22.3-10.7,31.6
		c-8.3,10.7-19.4,16.9-32.4,19.7c-16.2,3.4-32.3,2.8-47.5-4.5c-16.8-8-26.5-21.5-29.1-39.9c-0.6-4.3-0.7-8.7-1-13.2
		c-0.7-0.1-1.6-0.2-2.5-0.4c-7.7-1.9-12.1-7.3-13.8-14.7c-2.5-11.1,0.1-21.2,7.7-29.8c0.1-0.2,0.3-0.3,0.5-0.4c0.1,0,0.1,0-0.3,0
		c1.5,1.5,2.7,3,4.2,4c1.6,1.1,1.7,1.9,0.4,3.4c-4.8,5.7-6.7,12.1-4.6,19.4c1.5,5,5.2,8.2,9.9,8.5c0.6-2.4,1.2-4.9,1.9-7.7
		c4.1,6.7,10.7,6.9,17,7.6c2.8,0.3,5.7,0.3,9.2,0.5c-1.3,1.1-2.2,1.8-3,2.5c-6.3,5.5-10.7,12.1-11.8,20.6
		c-1.1,9.2,2.1,16.9,8.2,23.6c7,7.6,15.9,11.9,25.9,13.8c15.4,2.9,29.9,0.7,42.9-8.3c7.2-5,12.5-11.5,14.3-20.2
		c2.1-9.9-0.9-18.6-7.6-26C450.1,231,447.9,229.2,445.8,227.3z"/>
	<path class="st1" d="M378.5,180.3c1.8-1.6,3.8-3.4,5.8-5.1c2-1.6,4.2-3,6.4-4.6c-3.2-6.7-2.8-13.4,0.6-20.5
		c1.8,5.6,3.7,10.6,8.9,14c-1.7-7.7-2.3-14.9,1.2-22.3c2,7.1,4.8,13.1,9.9,18.1c-2.8-7.5-3.7-14.8,1.3-22.1c0.7,2.1,1.1,3.9,1.8,5.7
		c3.2,8.3,8.7,15,15.3,20.7c5.7,4.9,11.6,9.6,17.4,14.4c0.7,0.6,1.4,1.2,2.3,2.1c-3.2,0.7-6.2,1.2-9.1,2c-5.3,1.6-10.6,3.5-15.9,5.2
		c-1.5,0.5-3,0.9-4.6,1c-7.2,0.5-14.2,0.5-21.1-2.4C392.4,184,385.4,182.4,378.5,180.3z"/>
	<path class="st1" d="M358.3,182.4c12.7,0.3,25.5,1,37.3,6.1c9.3,4.1,18.7,4.4,28.4,2.9c1.3-0.2,2.5-0.6,3.7-1.1
		c8.6-3.9,17.6-6.2,26.9-7c6.7-0.6,13.5-0.7,20.2-1c2-0.1,3.9,0.3,4.5,2.7c0.7,2.9,0.4,6.8-1.9,7.8c-2.2,1-3,2.8-3.3,5.1
		c-0.6,4-1.6,8-2.5,12c-1.8,8.2-6.5,12.9-15.3,13.6c-8.5,0.7-16.8,0.5-25-1.8c-7.5-2.1-11.8-7.9-12.2-16.1c0-0.1,0-0.3,0-0.4
		c-0.2-5-3.9-7.3-8.5-5.2c-1.5,0.7-1.7,2-1.9,3.5c-0.4,3-0.7,6.1-1.7,9c-1.4,4.4-4.7,7.4-9.1,8.7c-10.3,3.1-20.7,3.5-31.2,1.3
		c-3.9-0.8-6.8-3-8.1-6.7c-1.8-5.1-3-10.4-4.4-15.6c-0.2-0.9-0.4-1.8-0.4-2.8c-0.2-2-1.1-3.4-2.9-4.5c-2.7-1.6-3.6-6.9-1.5-9.3
		c0.6-0.7,1.8-1.2,2.8-1.3C354.1,182.3,356.2,182.4,358.3,182.4z M378.7,222.1c6.2-0.4,12.3-1,18.3-2.9c3.5-1.1,6-3.3,7-6.8
		c0.9-3.2,1.1-6.6,1.4-9.9c0.2-2.8-1-5.1-3.1-6.7c-1.6-1.2-3.5-2.4-5.4-3c-9-3.2-18.2-4.1-27.7-3.7c-5.5,0.3-8.6,3.3-10,8.2
		c-1.9,6.6-1,13.1,2.2,19.1c1.1,2.1,2.9,3.6,5.3,4C370.7,221,374.7,221.6,378.7,222.1z M448.3,222.1c4.4-0.5,8.1-0.9,11.7-1.4
		c3.7-0.5,6-2.7,7.5-6.1c2-4.7,2.7-9.7,2-14.7c-0.8-5.6-3.7-10.8-11.1-10.9c-3.5,0-7-0.1-10.5,0.2c-6.4,0.5-12.8,1.6-18.7,4.3
		c-3.3,1.5-6,3.8-6.4,7.7c-0.2,1.9-0.2,3.9,0,5.8c0.7,7.6,3.7,11.3,11.2,12.9C438.7,221,443.8,221.5,448.3,222.1z"/>
	<path class="st1" d="M413.2,252c-1.4-0.2-3.7-0.3-5.8-0.7c-2.2-0.5-3.4-2-3.4-4.3c-0.1-5.1,1.8-9.4,5.6-12.7c2.7-2.3,5.8-2.3,8.6,0
		c3.6,3.1,5.5,7.1,5.6,11.8c0.1,3.4-1.5,5.2-4.9,5.6C417.3,251.8,415.7,251.8,413.2,252z"/>
	<path class="st1" d="M388.9,268.5c5.1,2.8,10.5,4.4,16.3,5c9.1,0.9,18.1,0.3,26.5-3.7c2.4-1.2,4.8-2.7,6.7-4.5
		c3.4-3.1,4.6-7,2.6-11.6c3.9,2.3,5.2,7.6,3.1,11.7c-1.6,3.1-4.2,5.1-7.1,6.7c-5.4,3.1-11.3,4.4-17.4,4.9c-8,0.6-15.9-0.1-23.4-3.3
		c-2.7-1.2-5.2-2.9-7.8-4.4C388.6,269,388.8,268.8,388.9,268.5z"/>
	<path class="st1" d="M376.6,219.1c-3.6-0.7-6.8-1.2-9.9-1.8c-0.6-0.1-1.2-0.5-1.6-0.9c-2.9-2.6-4.2-9.3-2.4-12.9
		c1.2-2.4,2.5-4.8,3.8-7.5c-0.8-0.5-1.6-1.1-2.7-1.9c5.1-3.4,10.5-1.9,16.2-2.1C373.5,200.4,372.9,209.1,376.6,219.1z"/>
	<path class="st1" d="M384.6,206.4c0-4,3.2-7.1,7.1-7.1c3.9,0,7.1,3.2,7.1,7.1c0,4-3.3,7.3-7.2,7.2
		C387.6,213.6,384.6,210.4,384.6,206.4z M389.3,207.8c1.8,0,3.4-1.4,3.5-3.1c0.1-1.8-1.3-3.3-3.2-3.4c-1.9-0.1-3.5,1.4-3.6,3.2
		C386,206.2,387.5,207.8,389.3,207.8z"/>
	<path class="st1" d="M463.9,194.4c-0.9,0.6-1.7,1.1-2.5,1.7c1.5,2.9,3,5.8,4.4,8.6c2.1,4.4-1.5,12-6.3,13c-2.7,0.6-5.5,0.8-8.5,1.2
		c3.5-9.6,3.3-18.3-2.8-26.4C453.4,190.9,461.5,191.8,463.9,194.4z"/>
	<path class="st1" d="M443.2,206.4c0,4-3,7.1-7,7.2c-3.9,0.1-7.3-3.3-7.2-7.2c0-3.9,3.3-7.1,7.1-7.1
		C440.1,199.3,443.2,202.5,443.2,206.4z M437.2,204.5c0-1.8-1.5-3.2-3.3-3.2c-2,0-3.4,1.5-3.3,3.4c0.1,1.8,1.6,3.2,3.4,3.1
		C435.8,207.7,437.2,206.2,437.2,204.5z"/>
</g>
<g>
	<path class="st1" d="M92,324.9c4.7,8.2,9.5,16.4,14.4,24.9c0.7-1.2,1.2-2.1,1.7-3c3.6-6.6,7.2-13.2,11-19.7c0.5-0.9,1.9-1.6,3-1.7
		c6.1-0.2,12.2,0,18.3-0.1c1.9,0,2.3,0.6,2.2,2.4c-0.3,13.3-0.6,26.6-0.6,39.9c0,6.9,0.4,13.8,0.8,20.7c0.1,2.1-0.6,2.8-2.7,2.7
		c-6.6-0.1-13.1-0.1-19.7,0c-2.2,0-2.8-0.8-2.7-2.8c0.2-5.4,0.4-10.8,0.5-16.2c0-0.9,0-1.7-0.5-2.8c-0.6,1.1-1.4,2.2-1.9,3.3
		c-2.4,5.2-4.8,10.5-7.2,15.7c-0.7,1.4-1.6,2.7-2.4,4.1c-0.2,0-0.3,0-0.5,0c-1-1.7-2.1-3.4-2.9-5.1c-2.3-5-4.4-10.1-6.7-15.1
		c-0.5-1-1.1-1.9-1.7-2.9c-0.6,1-0.6,1.9-0.6,2.7c0.2,5.4,0.3,10.9,0.5,16.3c0.1,2.1-0.6,2.7-2.7,2.7c-6.5-0.1-12.9,0-19.4-0.1
		c-0.9,0-1.8-0.3-2.7-0.4c0-4.9,0-9.8,0-14.7c0.2-0.2,0.4-0.5,0.4-0.7c0-10.9,0-21.9,0-32.8c0-0.2-0.3-0.5-0.5-0.7
		c0-5.1,0-10.1,0-15.2c3-0.2,5.9-0.3,8.9-0.6c2.6-0.2,5.2-0.6,7.8-0.8C88.2,324.9,90.1,324.9,92,324.9z"/>
	<path class="st1" d="M190.9,324.9c1,1.6,2.1,3.2,2.9,4.8c8.3,17.2,14.3,35.2,19.9,53.4c0.8,2.4,1.6,4.8,2.6,7.5
		c-1,0.1-1.7,0.3-2.5,0.3c-7.4,0-14.9,0-22.3,0c-1.9,0-2.5-0.6-2.5-2.4c0-3.2-0.2-3.3-3.4-3.3c-3.2,0.1-6.5,0.3-9.7,0.4
		c-1.9,0.1-3.2,1-3.5,2.9c-0.3,2-1.4,2.4-3.3,2.4c-6.6-0.1-13.3,0-19.9,0c-2.6,0-2.9-0.3-2-2.7c7.1-20.5,14.3-41,21.4-61.5
		c0.2-0.7,0.6-1.3,0.9-1.9c1.6,0,3.2,0,4.8,0c1.1,0.3,2.2,0.8,3.3,0.7c3.8-0.1,7.6-0.5,11.5-0.7
		C189.6,324.9,190.3,324.9,190.9,324.9z M181.1,354.3c-3.4,2.5-5,5.2-3.7,7.3c0.7,1.2,2.4,2.3,3.8,2.6c1.9,0.4,3.2-1.1,3.8-2.9
		C185.7,359,184.3,356.4,181.1,354.3z"/>
	<path class="st1" d="M379.7,324.9c1,1.6,2.1,3.2,2.9,4.8c8.3,17.2,14.3,35.2,19.9,53.4c0.8,2.4,1.6,4.8,2.6,7.5
		c-1,0.1-1.7,0.3-2.5,0.3c-7.4,0-14.9,0-22.3,0c-1.9,0-2.5-0.6-2.5-2.4c0-3.2-0.2-3.3-3.4-3.3c-3.2,0.1-6.5,0.3-9.7,0.4
		c-1.9,0.1-3.2,1-3.5,2.9c-0.3,2-1.4,2.4-3.3,2.4c-6.6-0.1-13.3,0-19.9,0c-2.6,0-2.9-0.3-2-2.7c7.1-20.5,14.3-41,21.4-61.5
		c0.2-0.7,0.6-1.3,0.9-1.9c1.6,0,3.2,0,4.8,0c1.1,0.3,2.2,0.8,3.3,0.7c3.8-0.1,7.6-0.5,11.5-0.7
		C378.4,324.9,379.1,324.9,379.7,324.9z M369.9,354.4c-3.2,2.1-4.7,4.8-3.9,7.1c0.7,1.8,2,2.9,4,2.8c2-0.1,3.2-1.3,3.8-3.1
		C374.5,358.9,373,356.2,369.9,354.4z"/>
	<path class="st1" d="M589,324.9c1,1.6,2,3.2,2.9,4.8c8.6,17.6,14.5,36.3,20.4,54.9c0.6,1.9,1.3,3.8,2.1,6.1
		c-1.1,0.1-1.9,0.3-2.7,0.3c-7.4,0-14.7-0.1-22.1,0c-2,0-2.7-0.6-2.6-2.6c0.1-3-0.2-3.2-3.1-3.1c-3.3,0.1-6.6,0.3-10,0.4
		c-2,0.1-3.3,1-3.6,3c-0.3,1.8-1.3,2.3-3.1,2.3c-6.7-0.1-13.4,0-20.2,0c-2.5,0-2.7-0.2-1.9-2.6c7.2-20.6,14.3-41.2,21.5-61.8
		c0.2-0.6,0.6-1.1,0.9-1.7c1.6,0,3.2,0,4.8,0c1.1,0.3,2.2,0.8,3.2,0.7c3.8-0.1,7.7-0.5,11.5-0.7C587.7,324.9,588.4,324.9,589,324.9z
		 M579.2,354.3c-3.4,2.5-4.7,5-3.8,7.3c0.7,1.7,2,2.8,4,2.7c2-0.1,3.2-1.3,3.7-3.1C583.8,358.9,582.3,356.3,579.2,354.3z"/>
	<path class="st1" d="M478.6,324.9c0.1,6.1,0.2,12.3,0.4,18.4c0.1,1.6-0.4,2.1-2,2c-3.5-0.2-6.9-0.3-10.6-0.5c0,7.3-0.1,14.4,0,21.5
		c0.1,7.4,0.4,14.9,0.7,22.3c0.1,1.9-0.6,2.5-2.4,2.4c-7.1-0.1-14.2-0.1-21.3,0c-2.1,0-2.5-0.8-2.5-2.7c0.3-8.2,0.6-16.5,0.8-24.7
		c0.1-6,0-12,0-18.4c-4.3,0.3-8.5,0.6-12.9,1c0.9-7.1,1.8-13.9,2.7-20.9c3.6,0.2,7,0.6,10.5,0.6c10.1-0.1,20.2-0.4,30.4-0.7
		c0.2,0,0.3-0.3,0.5-0.4C474.8,324.9,476.7,324.9,478.6,324.9z"/>
	<path class="st1" d="M788.7,380c-0.5,2.9-1,5.8-1.4,8.7c-0.4,3.1-0.6,3.2-3.7,3c-10.7-0.4-21.3-0.8-32-1c-2.8-0.1-5.7,0.1-8.5,0.3
		c-2.2,0.2-2.9-0.6-2.9-2.8c0.1-11.3,0.1-22.7,0-34c-0.1-8.6-0.5-17.3-0.9-25.9c-0.1-2,0.6-2.6,2.5-2.5c7.7,0.1,15.5,0,23.6,0
		c-0.2,3.5-0.5,6.9-0.5,10.2c-0.3,11-0.5,22-0.8,33c0,1.7,0.5,2.7,2.5,2.4c6.6-0.7,13.2-1.4,19.8-2.1c0.8-0.1,1.6,0.1,2.4,0.1
		C788.7,373.1,788.7,376.6,788.7,380z"/>
	<path class="st1" d="M544.5,390.7c-1,0.1-1.7,0.2-2.3,0.2c-7.2,0-14.4,0-21.6,0.1c-2.1,0-3.2-0.7-3.9-2.6
		c-1.9-5.3-3.9-10.5-5.9-15.7c-0.3-0.9-0.8-1.7-1.1-2.5c-0.3,0-0.5,0.1-0.8,0.1c0.4,6.8,0.9,13.7,1.3,20.6c-0.6,0.1-0.8,0.3-1.1,0.3
		c-7.4,0-14.7-0.1-22.1-0.1c-3.2,0-3.2,0-3.1-3.1c0.3-13.1,0.8-26.1,0.9-39.2c0-6.9-0.6-13.8-1-20.6c-0.1-1.4,0-2.2,1.8-2.2
		c12,0.1,23.9-0.2,35.9,0.1c5.7,0.1,11,2.1,15.5,5.8c3.7,3.1,5.6,7.1,6,12c0.7,8.5-1.3,15.9-8.9,20.8c-1.4,0.9-1.2,2-0.5,3.3
		c3.1,6.2,6.1,12.5,9.1,18.7C543.1,387.8,543.7,389.1,544.5,390.7z M508.5,350.9c0.1,4.1,1.5,5,6.1,3.4c2.5-0.9,3.9-3.4,3.4-6
		c-0.6-2.8-3.6-4.7-7.2-4.3c-2.9,0.3-1.9,2.9-2.3,4.6C508.3,349.1,508.5,349.7,508.5,350.9z"/>
	<path class="st1" d="M276,365.8c-0.5-12.5-1-25-1.6-37.5c-0.1-2,0.3-2.6,2.4-2.6c10.2,0.1,20.4,0.1,30.6,0.1
		c13.1,0,22.9,7.3,25.3,19.2c1.8,8.8,0.9,17.4-5,24.8c-5.8,7.2-13.8,8.7-22.5,8.1c-0.7,0-1.4-0.2-2.1-0.2c-2.6-0.1-3.1,0.4-3,2.9
		c0.2,2.9,0.4,5.8,0.6,8.8c0.1,1,0.1,1.8-1.4,1.8c-7.1-0.2-14.2-0.3-21.3-0.3c-3.5,0-3.6,0.1-3.5-3.5c0.3-7.2,0.6-14.4,0.9-21.6
		C275.7,365.8,275.9,365.8,276,365.8z M308.3,352.1c0-3.6-1.5-5.8-4.6-6.6c-2.4-0.6-3.4-0.2-3.6,2.3c-0.3,3.4-0.2,6.8-0.2,10.1
		c0,0.4,1,1.1,1.6,1.1C305.7,359.4,308.3,356.5,308.3,352.1z"/>
	<path class="st1" d="M733.3,345.4c-4-0.3-7.3-0.5-10.7-0.7c-3.3-0.2-6.6-0.3-10-0.3c-0.8,0-1.6,0.1-2.3,0.5c-0.6,0.3-1.5,1-1.5,1.5
		c0,0.7,0.5,1.8,1.1,2.1c1.3,0.6,2.7,1.1,4.1,1c5.1-0.1,10.1-0.3,15.2-0.7c1.8-0.1,2.4,0.3,2.2,2c-0.5,5.4-1.1,10.7-1.6,16.1
		c-0.2,1.8-1.5,1.3-2.5,1.2c-4.7-0.3-9.5-0.6-14.2-0.8c-0.6,0-1.3-0.1-1.9,0.1c-1.2,0.3-2.8,0.6-2.3,2.3c0.2,0.8,1.6,1.8,2.5,1.8
		c6.3,0.2,12.7,0.3,19,0.1c4.6-0.1,4.8-0.1,3.9,4.4c-0.9,4.4-1.7,8.8-2.4,13.3c-0.3,1.7-1,2.4-2.6,2.2c-14.3-1.5-28.6-0.8-43-0.5
		c-3,0.1-3.1,0-3-3c0.3-12.7,0.8-25.3,0.9-38c0.1-7-0.4-14.1-0.8-21.1c-0.1-2.2,0.2-3.1,2.7-3c13.9,0.1,27.7,0.1,41.6,0.1
		c3.1,0,3.9,0.7,4.2,3.8C732.2,334.7,732.8,339.8,733.3,345.4z"/>
	<path class="st1" d="M642.6,325.8c0,3.5,0.1,6.8,0,10.1c-0.1,3.6-0.3,7.3-0.7,10.9c-0.7,5.8,2,10.6,4.6,15.7
		c2.4-4.8,4.6-9.6,4.8-14.9c0.3-6.6,0.3-13.3,0.5-20c0-0.5,0.1-1.1,0.2-1.9c0.8,0,1.6,0,2.4,0c6.7,0,13.5,0.1,20.2,0
		c2.1,0,2.8,0.5,2.7,2.6c-0.3,6.2-0.3,12.4-0.5,18.5c-0.1,1.6-0.5,3.3-1.2,4.8c-5.7,12.6-11.5,25.1-17.3,37.6
		c-0.6,1.3-1.4,1.6-2.8,1.6c-6-0.1-12,0-18.1-0.1c-0.9,0-2.4-0.8-2.7-1.6c-5.7-12.2-11.3-24.5-16.8-36.8c-0.6-1.3-0.8-2.9-0.8-4.4
		c0.1-6.8,0.3-13.6,0.4-20.4c0-1.4,0.5-2,2-2C627.1,325.9,634.8,325.8,642.6,325.8z"/>
	<path class="st1" d="M245.6,325.8c-0.2,3.5-0.4,6.7-0.5,9.8c-0.3,10.9-0.6,21.8-0.8,32.8c-0.1,3.1,0.1,3.3,3.2,3
		c6.4-0.6,12.8-1.2,19.1-2.1c1.8-0.3,2.5,0,2.4,1.9c-0.5,6.1-1,12.3-1.5,18.4c-0.1,1.5-0.7,2.4-2.6,2.2c-13.7-1.6-27.3-1.5-41.1-0.9
		c-3.3,0.1-3.3,0-3.3-3.2c-0.3-19.6-0.6-39.3-0.9-58.9c0-3,0-3,3-3c6.6,0,13.3,0,19.9,0C243.3,325.8,244.3,325.8,245.6,325.8z"/>
</g>
</svg>
