<?xml version="1.0" encoding="utf-8"?>
<!-- Generator: Adobe Illustrator 19.0.0, SVG Export Plug-In . SVG Version: 6.00 Build 0)  -->
<svg version="1.1" id="Layer_1" xmlns="http://www.w3.org/2000/svg" xmlns:xlink="http://www.w3.org/1999/xlink" x="0px" y="0px"
	 viewBox="0 0 841.9 595.3" style="enable-background:new 0 0 841.9 595.3;" xml:space="preserve">
<style type="text/css">
	.st0{fill:#A0A0A0;}
</style>
<g>
	<path class="st0" d="M416.2,220.1c1.2-2.7,2.1-4.8,3.2-7.3c84.4-14.8,168.9-29.7,254.2-44.7c-1,1.7-1.7,2.8-2.4,4
		c-29.4,45.2-58.8,90.5-88.3,135.6c-1.5,2.3-2.2,4.4-1.8,7.2c2.4,16.6,4.6,33.3,6.9,50c0.1,0.6,0.3,1.2,1,1.9
		c3.9-28.2,7.8-56.4,11.7-84.9c13.7,0,27.2,0,40.8,0c0,40.5,0,80.9,0,121.6c-8.3,0-16.7,0-25.4,0c0-34.2,0-68.3,0-102.4
		c-0.2,0-0.5,0-0.7-0.1c-5.4,34.2-10.8,68.3-16.2,102.6c-8.3,0-16.4,0-25.1,0c-4.5-28.2-8.9-56.5-13.4-84.9c-1-0.2-2-0.4-3.3-0.6
		c0,28.6,0,56.9,0,85.5c-7.7,0-15,0-22.7,0c0-30,0-59.8,0-90c-3.3-0.7-6.4-1.3-9.6-1.9c0,2.7,0,5.2,0,7.6c0,16.7,0.1,33.4-0.1,50.2
		c0,3.8-0.5,7.6-1.2,11.3c-1.9,9.9-7.7,16.7-17.3,19.6c-5.7,1.7-11.8,2.8-17.8,3.1c-11.6,0.5-23.3,0.1-35.4,0.1
		c0-35.2,0-70.3,0-105.7c-2.8-0.5-5.2-1-7.7-1.5c-0.2,1.3-0.4,2.4-0.7,3.8c-9.9,0-19.8,0-29.9,0c0,9,0,17.6,0,26.6
		c9.6,0,19.2,0,29,0c0,6.3,0,12.2,0,18.5c-9.6,0-19.2,0-29,0c0,13.4,0,26.3,0,39.7c10,0,19.9,0,30,0c0,6.4,0,12.3,0,18.4
		c-19.4,0-38.7,0-58.4,0c0-39.3,0-78.7,0-118.1c-1.1-0.5-2-0.9-2.7-1.2c0-0.3,0-0.4,0-0.5c0-0.1,0.1-0.2,0.2-0.3
		c4.8-3.4,9.7-4.1,15.7-2.9c52.9,10.5,105.8,20.6,158.8,30.9c4.1,0.8,8.1,1.5,12.5,2.3c29.4-45.2,58.8-90.4,88.7-136.3
		c-36.2,6.4-71.5,12.6-106.9,18.8c0-0.2-0.1-0.3-0.1-0.5c-0.2,0.1-0.4,0.3-0.5,0.4c-11.8,19.3-23.6,38.7-35.3,58.1
		c-2.2,3.7-4,7.8-5.4,11.9c-1.6,4.4,0.4,6.4,4.9,5c2.8-0.9,5.8-2.3,7.9-4.2c4.7-4.5,8.9-9.4,13.2-14.3c1.3-1.5,2.3-2.7,4.7-1.7
		c-0.4,0.8-0.8,1.6-1.3,2.3c-4.9,6.9-10.2,13.4-17.1,18.4c-4.7,3.4-9.8,5.9-15.8,5.8c-6-0.1-8.9-3.2-8.4-9.2c0.2-2.4,1-4.8,1.7-7.5
		c-2.6,2.7-4.8,5.3-7.2,7.7c-4,3.9-8.4,7.1-13.9,8.4c-1.1,0.3-2.2,0.4-3.3,0.5c-7.8,0.4-11.2-3.8-9.5-11.4c0.2-1,0.5-1.9,1-3.6
		c-2.8,2.6-4.9,5.1-7.5,6.9c-3.9,2.7-8.1,5.1-12.3,7.3c-1.4,0.7-3.3,0.7-4.9,0.7c-5.5,0-8.2-3.3-7.1-8.8c0.3-1.5,0.8-2.9,1.5-5.1
		c-2.9,2.5-4.9,4.9-7.4,6.5c-3.9,2.5-8.1,4.7-12.3,6.7c-1.4,0.7-3.3,0.7-4.9,0.6c-5.3-0.2-8.4-4-6.8-9.1c1.3-4.1,3.4-8,5.3-12.3
		c-1,0.9-2,1.7-2.9,2.5c-10.1,9.2-20.8,17.4-33.7,22.5c-8.9,3.6-18.1,5.2-27.6,4.5c-10.9-0.7-15.8-5.8-16.1-17.2
		c-1.4,1.8-2.5,3.3-3.7,4.6c-3.4,3.4-6.7,7-10.4,9.9c-4.1,3.2-9.1,3.6-14.1,1.9c-5.1-1.7-7.3-5.8-5.4-10.8c1.1-3,2.7-5.9,4.5-8.6
		c8.6-13.1,17.4-26.1,26.2-39.2c0.7-1,1.3-2,2.5-3.7c-1.9,0.8-3,1.4-4.2,1.9c-11.2,5.1-22.7,6.5-34.8,4c-0.8-0.2-1.5-0.4-2.3-0.6
		c-6.4-2.1-11.4-5.6-12.6-12.6c-1.3-7.4,1.4-13.5,7.3-18c5.7-4.4,12.3-6.6,19.3-7c8.3-0.5,16.7-0.1,25.1-0.1
		c-14.3-5.5-28.8-11-43.5-16.7c-28.7,44.2-57.4,88.2-86.5,133c6.6-1,12.3-1.9,18-2.8c28.8-4.6,57.6-9.2,86.4-13.7
		c1.3-0.2,2.7,0.1,3.9,0.4c3.8,1,7.8,1.3,11.1-0.9c4.8-3.1,10.1-3.3,15.4-4.3c1.1-0.2,2.2-0.3,3.2-0.4c2.5,1.8,4.9,3.5,7.8,5.5
		c-25.1,4-49.8,8-74.5,11.9c0,0.2,0,0.4,0,0.6c3.3,0.2,6.6,0.1,9.9,0.5c4.4,0.5,8.9,1,13.3,2.1c9.2,2.3,14.7,8.2,16.3,17.6
		c1,6.1,1.1,12.3-0.4,18.4c-2,8.3-7.1,13.8-15.2,16.5c-1.1,0.3-2.1,0.7-3.9,1.2c1.5,0.3,2.3,0.6,3.1,0.7
		c10.3,1.3,16.2,7.2,16.8,17.7c0.5,9,0.4,17.9,0.4,26.9c0,6.9,0.4,13.7,4,20.3c-9.6,0-18.8,0-28.4,0c-3.4-4.8-3.9-10.5-4.1-16.4
		c-0.2-7.7,0-15.5,0-23.2c0-1.3,0-2.7,0-4c-0.4-8.6-5.7-12.8-14.7-11.3c0,18.2,0,36.4,0,55c-9.6,0-18.8,0-28.4,0
		c0-39.1,0-78,0-117.5c-2.9,0.5-5.4,0.8-8.1,1.3c0,4.4,0,8.5,0,12.9c-10.1,0-20,0-30.1,0c0,9,0,17.6,0,26.7c9.6,0,19.1,0,28.8,0
		c0,6.3,0,12.2,0,18.4c-9.6,0-19,0-29,0c0,19.6,0,38.8,0,58.2c-9.7,0-19,0-28.4,0c0-40.6,0-81,0-121.7c1.3-0.1,2.5-0.2,3.7-0.2
		c4.8,0,9.7-0.1,14.5,0c2.4,0.1,3.8-0.8,5.1-2.8c19.4-29.9,38.9-59.8,58.3-89.7c9.1-13.9,18.1-27.8,27.2-41.7c0.7-1,1.4-2,2.2-3.2
		c7.8,3,15.6,5.9,23.3,8.9c13.7,5.3,27.5,10.4,41.1,15.8c4.1,1.6,8.1,2.4,12.4,1.9c2.7-0.3,5.4-0.3,8.8-0.5
		c-2.4,3.5-4.5,6.4-6.7,9.7c1.6,0.8,3.1,1.5,4.8,2.4c1.2-1.5,2.3-3,3.6-4.7c1.3,0.4,2.5,0.8,4,1.2c2-1.8,4.1-3.7,6.2-5.4
		c6.9-5.6,14.9-7.7,23.6-6.6c9.4,1.1,14.7,8.5,12.8,17.7c-2.1,9.7-7.7,16.8-16.6,21.2c-3.8,1.9-7.9,3.1-11.9,4.7
		c0.1,0.1,0.2,0.4,0.4,0.6c8.7,4.3,10.9,12.4,8.3,21.5c-1.6,5.7-4.8,10.9-7.3,16.4c14.6-10.3,27.8-22.5,38.5-37.6
		c4.1-0.3,8.3-0.5,13.3-0.8c-0.9,1.5-1.5,2.6-2.1,3.5c-6.1,9.5-12.3,19-18.4,28.6c-1.4,2.2-2.2,4.7-3.2,7.1c0.3,0.3,0.6,0.7,0.9,1
		c1.6-0.3,3.5-0.2,4.9-0.9c2.6-1.4,5.5-2.9,7.5-5.1c5.3-5.7,10.5-11.6,15.4-17.8c3.9-4.9,7.1-10.3,10.6-15.6
		c4.3-0.3,8.6-0.6,13.5-0.9c-0.9,1.5-1.5,2.5-2.1,3.5c-5.6,8.8-11.3,17.6-16.7,26.4c-1.3,2.2-2.4,4.6-3.1,7c-0.8,2.7,0.5,4,3.2,3
		c2.3-0.8,4.7-1.9,6.3-3.6c5.8-5.8,11.1-12,16.8-17.9c4.7-4.9,9.3-10,14.4-14.5c4.3-3.7,9.7-5.6,15.5-5.8c4.4-0.2,8.3,0.7,11.2,4.9
		c7.2-11.8,14.1-23.2,21.5-35.4C496.6,205.9,456.7,213,416.2,220.1z M371.4,209.8c-8.6,12.8-17,25.2-25.4,37.7
		c5.4-1.8,10.6-3.5,16.2-3.4c0,1.2,0,2.3,0,3.3c-5.9,0.5-11.4,1.7-16.1,5c-6.7,4.7-10.6,10.9-10.1,19.3c0.2,4.5,2.8,7.6,7.2,8.5
		c2.1,0.4,4.2,0.7,6.3,0.5c20.4-1.2,33.6-22.7,33.5-37.1c-0.1-7.7-3.9-11.6-11.6-11.8c-3.1-0.1-6.2,0-9.8,0c1.2-1.8,2.1-3.2,3.1-4.6
		c12.2,0.5,23.8-0.2,31.8-11.7c-5.7-2.2-11.1-4.3-16.9-6.6c1.9-2,3.3-3.6,4.8-5.2c5.5,2.1,10.6,4,16.1,6c0.8-2.8,1.8-5.2,2.1-7.7
		c1-7.4-3.3-11.1-10.5-9.3c-8.1,2.1-13.2,8-18.2,14.2c3.2,2.3,6.2,4.4,9.4,6.6c-0.9,1-1.5,1.8-2.1,2.6
		C377.9,214.1,374.9,212.1,371.4,209.8z M347.4,198.6c-14.1-5-28.3-7.4-43-5.2c-5.6,0.8-10.9,2.6-15.4,6.2c-4.7,3.8-7,8.8-5.8,14.9
		c1.2,5.9,5.7,8.6,11.1,10c6,1.6,12,1.3,18,0.4C328.3,222.3,339.4,213,347.4,198.6z M482.1,303.2c0,27.8,0,55.1,0,82.4
		c9.1,1.1,13.5-2.3,14.5-10.9c0.2-1.4,0.2-2.9,0.3-4.4c0-18.7,0-37.4,0-56.1c0-2.8-0.5-5.5-0.7-8.4
		C491.3,305,486.8,304.1,482.1,303.2z M359.6,203.7c-0.5,0.7-0.9,1-1.1,1.3c-14.8,21.8-29.6,43.6-44.3,65.4c-1.1,1.6-2,3.3-2.7,5
		c-0.4,1.1,0,2.5,0.1,3.7c1.2-0.1,2.4-0.1,3.5-0.5c0.9-0.3,1.8-1,2.5-1.7c3.1-3.3,6.5-6.3,9-9.9c13.6-19.5,27-39.1,40.5-58.7
		c0.1-0.2,0-0.4,0.1-1C364.7,206.3,362.2,205,359.6,203.7z M479.5,267.1c-0.2,3.6,1.1,5.1,3.8,4c2.9-1.2,5.9-2.8,8.2-4.9
		c8.1-7.6,14.6-16.4,20.3-25.8c1.1-1.7,1.9-3.8,0.3-5.3c-1.2-1.1-3.6-2.1-5-1.7c-3.3,1.1-6.8,2.6-9.3,4.9
		c-7.8,7-13.3,15.7-17.3,25.3C479.9,265,479.7,266.4,479.5,267.1z M267,351.2c2.1-0.2,3.9-0.3,5.6-0.6c5.4-0.9,8-3.2,8.6-8.7
		c0.5-4.4,0.5-9-0.1-13.4c-0.9-6.7-7.6-10.2-14.2-8C267,330.5,267,340.6,267,351.2z"/>
	<path class="st0" d="M379.7,366.1c-9.8,0-19.3,0-29,0c0,13.3,0,26.2,0,39.6c10.1,0,20,0,30.1,0c0,6.3,0,12.2,0,18.4
		c-19.5,0-38.9,0-58.6,0c0-40.5,0-80.9,0-121.6c19.5,0,38.8,0,58.5,0c0,6,0,12,0,18.3c-9.9,0-19.8,0-30,0c0,9,0,17.6,0,26.6
		c9.6,0,19.2,0,29,0C379.7,353.8,379.7,359.7,379.7,366.1z"/>
	<path class="st0" d="M590.9,411.8c1.6,0,3.1,0,4.8,0c0,4,0,7.8,0,11.9c-1,0.1-1.9,0.2-3.2,0.3c-0.2-1.9-0.4-3.6-0.5-5.2
		c-0.2,0-0.3,0-0.5-0.1c-0.5,1.6-1.1,3.3-1.7,5.2c-4.4,0.3-2.3-4.3-4.5-5.8c-0.1,1.9-0.2,3.8-0.3,5.7c-0.9,0-1.6,0-2.6,0
		c0-3.9,0-7.8,0-11.9c1.6,0,3.1,0,4.8,0c0.6,1.6,1.2,3.2,1.9,5.4C589.8,415.2,590.3,413.6,590.9,411.8z"/>
	<path class="st0" d="M456.4,419c0.6,1.6,1.1,3,1.8,4.7c-1.5,0-2.6,0-4,0c-0.6-1.4-1.3-2.8-2-4.3c-0.2,0-0.5,0.1-0.7,0.1
		c-0.2,1.3-0.3,2.7-0.5,4.2c-1.1,0-2.2,0-3.4,0c0-4,0-7.9,0-12.1c2.3,0,4.4-0.1,6.5,0c3.8,0.2,5.1,3,3,6.3
		C456.9,418.3,456.6,418.7,456.4,419z"/>
	<path class="st0" d="M549.3,423.6c-4.9,1.3-4.3-3.9-7.1-5.3c-0.2,1.8-0.3,3.5-0.5,5.4c-1,0-1.8,0-2.7,0c0-4,0-7.9,0-11.9
		c1.2,0,2.3,0,3.5,0c1,1.6,2,3.1,3.5,5.4c0.2-2.1,0.3-3.5,0.5-5.2c0.9,0,1.8,0,2.9,0C549.3,415.9,549.3,419.7,549.3,423.6z"/>
	<path class="st0" d="M513.3,423.8c0-4.2,0-7.9,0-12c3.5-0.1,7.2-1.3,9.6,2.2c1.6,2.3,1.6,4.9,0.1,7.3
		C520.7,425,517,423.8,513.3,423.8z M517.2,420.9c2.3-0.3,2.7-1.7,2.7-3.3c0-1.6-0.4-2.9-2.7-2.9
		C517.2,416.7,517.2,418.7,517.2,420.9z"/>
	<path class="st0" d="M482.1,411.8c1.2,0,1.9,0,2.9,0c0,4,0,7.9,0,11.9c-4.8,1.1-4.3-4-7.1-5.8c-0.1,1.9-0.2,3.7-0.4,5.7
		c-0.9,0-1.7,0-2.7,0c0-3.9,0-7.7,0-11.8c1.1-0.1,2.2-0.2,3.3-0.3c1.2,1.8,2.4,3.5,4,5.9C482.1,415.2,482.1,413.7,482.1,411.8z"/>
	<path class="st0" d="M466.2,424c-3.6,0-5.8-2.4-5.9-6.3c0-3.9,2.3-6.3,5.8-6.3c3.6,0,5.9,2.5,5.9,6.3
		C472.1,421.7,469.8,424,466.2,424z M466.1,421.4c2.4-1.7,2.1-3.8,1.5-5.8c-0.1-0.5-0.9-1.1-1.4-1.1c-0.5,0-1.3,0.6-1.4,1.1
		C464.3,417.6,463.9,419.6,466.1,421.4z"/>
	<path class="st0" d="M617.9,420.1c-1.2-0.4-2.6-0.5-3.5-1.3c-1.2-1-2.7-2.5-2.6-3.7c0.1-1.2,1.7-2.9,3-3.3c2.5-0.8,5.1-0.6,6.8,2.8
		c-2.2,0-4,0-5.8,0c-0.1,0.2-0.1,0.4-0.2,0.6c1,0.4,2,0.8,3,1c2.1,0.6,3.4,1.7,3.2,4c-0.2,2.2-1.8,3.2-3.8,3.6
		c-3.4,0.7-5.4-0.3-7.2-3.9c2.6,0.4,4.7,0.8,6.7,1.1C617.7,420.8,617.8,420.4,617.9,420.1z"/>
	<path class="st0" d="M422.1,421.7c0,0.4,0,1.1,0,2c-2.9,0-5.7,0-8.9,0c0-3.7,0-7.6,0-11.7c2.8,0,5.7,0,8.9,0c0,0.8,0,1.5,0,2.4
		c-1.7,0.1-3.3,0.3-5,0.4c-0.1,0.3-0.1,0.6-0.2,0.9c1.3,0.4,2.5,0.7,3.9,1.2c0,0.6,0,1.2,0,2c-1.3,0.2-2.6,0.5-4.1,0.7
		C417.9,422.1,420.3,420.2,422.1,421.7z"/>
	<path class="st0" d="M399.4,414.3c-2,0.1-3.6,0.3-5.2,0.4c-0.1,0.3-0.1,0.6-0.2,0.9c1.3,0.4,2.6,0.7,3.9,1.1c0,1.9,0,1.9-3.9,2.9
		c1,2.5,3.4,0.7,5.1,1.9c0,0.4,0.1,1.2,0.2,2.3c-3.1,0-6,0-9.1,0c0-3.9,0-7.8,0-11.8c2.9,0,5.8,0,8.9,0
		C399.2,412.6,399.3,413.3,399.4,414.3z"/>
	<path class="st0" d="M525,424.1c1.4-4.4,2.5-8.2,3.7-12.2c1.3,0,2.6,0,4.2,0c1.2,3.9,2.4,7.8,3.7,11.9c-1.3,0.1-2.3,0.2-3.2,0.2
		c-2.4-3.2-2.4-3.1-5.3-0.6C527.6,423.8,526.5,423.8,525,424.1z"/>
	<path class="st0" d="M605.7,421.3c0-3.4,0-6.2,0-9.3c1.2-0.1,2-0.1,3.2-0.2c0,3,0.1,5.8,0,8.6c-0.1,2.7-1.9,3.6-4.3,3.7
		c-3.2,0.2-5.1-0.8-5.3-3.3c-0.3-2.9-0.1-5.8-0.1-8.9c1.2,0,2.3,0,3.3,0c0.4,3.1,0.7,6,1.1,9C603.5,421,604.5,421,605.7,421.3z"/>
	<path class="st0" d="M505.1,416.8c-1.5-0.7-3-1.4-4.7-2.1c-2.1,1.5-2.3,4.1-0.1,6.4c1.6-0.7,3.2-1.4,5.4-2.3
		c-1.1,4.4-2.8,5.7-6.1,5.3c-2.9-0.3-4.7-2.5-4.8-5.9c-0.1-3.8,1.6-6.2,4.8-6.6c3.3-0.4,5,0.8,6,4.2
		C505.4,416.1,505.3,416.4,505.1,416.8z"/>
	<path class="st0" d="M562.3,416.8c-1.4-0.6-2.8-1.3-4.6-2c-2.3,1-2.5,4-0.1,6.3c1.5-0.7,3.1-1.4,5-2.3c-0.4,4-1.8,5.3-4.9,5.3
		c-3.3,0-5.4-1.9-5.7-5.3c-0.3-3.9,1.3-6.6,4.5-7.1C559.9,411,561.8,412.3,562.3,416.8z"/>
	<path class="st0" d="M435,417c-2-0.9-3.5-1.5-5.2-2.3c-2.3,1.3-2.4,4.5-0.1,6.2c1.7-0.7,3.2-1.3,5.2-2.2c-0.8,4.3-2.5,5.6-5.9,5.3
		c-3.1-0.3-4.9-2.5-4.9-6.1c0-3.7,1.8-6.1,5-6.4C432.5,411.2,434.2,412.6,435,417z"/>
	<path class="st0" d="M636.3,420.9c1.9-0.8,3.4-1.4,5.4-2.2c-1,4.3-2.7,5.6-6.1,5.2c-3-0.3-4.7-2.5-4.8-5.8
		c-0.1-3.8,1.6-6.2,4.8-6.6c3.3-0.4,5,0.8,6,4.3c-2.3,1.9-3.4-0.4-4.7-1.5C634.3,416.1,634.2,418.7,636.3,420.9z"/>
	<path class="st0" d="M565.7,411.8c3,0,5.7,0,8.7,0c0,0.9,0,1.6,0,2.5c-1.7,0.1-3.3,0.3-4.9,0.4c-0.1,0.3-0.1,0.6-0.2,0.9
		c1.3,0.4,2.6,0.7,3.9,1.1c0.2,1.4,0.2,1.4-3.9,3.7c1.6,0.3,3.2,0.6,5.1,0.9c0.1,0.6,0.1,1.4,0.2,2.4c-3,0-5.8,0-8.8,0
		C565.7,419.9,565.7,416,565.7,411.8z"/>
	<path class="st0" d="M402.3,411.8c1.2,0,2.2,0,3.6,0c0,3,0,5.8,0,8.8c1.7,0.2,3,0.4,4.6,0.6c0.1,0.7,0.1,1.5,0.2,2.5
		c-2.9,0-5.5,0-8.4,0C402.3,419.8,402.3,416,402.3,411.8z"/>
	<path class="st0" d="M442.9,415.4c0,2.7,0,5.3,0,8.3c-1.2,0.1-2.3,0.2-3.7,0.3c0-3.1,0-6,0-8c-1.3-1.5-2.2-2.4-3-3.3
		c0.2-0.3,0.4-0.5,0.6-0.8c2.7,0,5.5,0,8.2,0c0.2,0.2,0.4,0.4,0.6,0.7c-0.7,0.9-1.5,1.8-2.2,2.7
		C443.3,415.3,443.1,415.3,442.9,415.4z"/>
	<path class="st0" d="M488.5,411.9c1.3,0,2.3,0,3.6,0c0,4,0,7.7,0,11.8c-1.2,0-2.3,0-3.6,0C488.5,419.7,488.5,415.8,488.5,411.9z"/>
	<path class="st0" d="M628,423.8c-1.2,0-2.2,0-3.4,0c0-3.9,0-7.8,0-11.9c1.1-0.1,2.1-0.1,3.4-0.2C628,415.8,628,419.8,628,423.8z"/>
</g>
</svg>
