<?xml version="1.0" encoding="utf-8"?>
<!-- Generator: Adobe Illustrator 19.0.0, SVG Export Plug-In . SVG Version: 6.00 Build 0)  -->
<svg version="1.1" id="Layer_1" xmlns="http://www.w3.org/2000/svg" xmlns:xlink="http://www.w3.org/1999/xlink" x="0px" y="0px"
	 viewBox="0 0 841.9 595.3" style="enable-background:new 0 0 841.9 595.3;" xml:space="preserve">
<style type="text/css">
	.st0{fill:#A0A0A0;}
</style>
<g>
	<path class="st0" d="M815.1,277c-0.9-1-1.8-2-2.6-2.9c-0.2,0.5-0.8,1.5-1.6,3c-0.9-1.2-1.5-2-2.4-3.1c-0.4,0.9-0.8,1.8-1.2,2.6
		c-0.2,0-0.4-0.1-0.6-0.1c0-2.6,0-5.1,0-7.7c0.4-0.2,0.7-0.3,1.1-0.5c1,1.2,2,2.5,3,3.8c1.1-1.4,1.1-4.3,4.2-3.5
		C815.1,271.4,815.1,274.2,815.1,277z"/>
	<path class="st0" d="M188.4,291.9c-0.1,43.2-35.3,78.2-78.6,78.1c-43.2-0.1-78.3-35.3-78.2-78.5c0.1-43.3,35.1-78.1,78.6-78
		C153.7,213.6,188.5,248.5,188.4,291.9z M43.1,290.8c-2.5,40.1,32.9,66.3,61.8,68c43.4,2.5,72.2-33.2,72.3-66.6
		c0.1-35.3-27.4-67.1-65.6-68C74.1,223.4,42.6,253.3,43.1,290.8z"/>
	<path class="st0" d="M786.6,315.1c-4.3,1.6-503.1,2.4-563.8,1.1c-1.3,0-2.5-0.3-3.7-0.4c0-0.7,0-0.9,0-1c0.1-0.1,0.2-0.2,0.4-0.3
		c1.1-0.2,2.1-0.4,3.2-0.4c187.4,0,374.8,0.1,562.1,0.1C785.2,314.2,785.6,314.6,786.6,315.1z"/>
	<path class="st0" d="M422.8,277c5.7,0.6,11.2,0.4,13.8-5.7c1.9-4.4,1.4-8.9-1.8-12.7c-3.9-4.6-9.1-4.4-14.9-3.8
		c0,14.3,0,28.3,0,42.5c2.8,0.9,5.3,1.7,7.9,2.5c-0.1,0.3-0.1,0.7-0.2,1c-6.8,0-13.7,0-20.5,0c-0.1-0.3-0.2-0.6-0.3-0.8
		c1.9-0.7,3.8-1.3,6.2-2.2c0-1.5,0-3.2,0-4.9c-0.2-10.4-0.4-20.8-0.6-31.1c-0.1-5.4-0.1-6.3-5.6-7.2c-0.7-0.1-1.3-0.6-2.4-1.1
		c0.8-0.6,1.2-1.2,1.7-1.2c8.5-0.2,17-0.6,25.5-0.4c6.6,0.1,11.1,4,12.7,10.3c1.5,5.6,0.1,10.5-4.1,14.4c-4,3.7-8.9,4.9-14.2,3.4
		c-1.2-0.3-2.3-1.2-3.5-1.9C422.7,277.7,422.8,277.4,422.8,277z"/>
	<path class="st0" d="M772.4,299.6c1.3-0.6,2.7-1.2,4.3-1.9c0-4.1,0-8.2,0-12.8c-5.9,0-11.8,0-18.5,0c0,3.9-0.3,7.7,0.1,11.5
		c0.2,1.4,1.8,2.7,2.9,4.2c-3.9,0-8.1,0-12.3,0c0.1-0.4,0-0.9,0.1-0.9c4.3-1.8,4.3-1.8,4.3-6.6c0-7.9,0-15.8,0-23.7
		c-1.1-0.6-2.2-1.2-3.3-1.8c0.1-0.3,0.1-0.5,0.2-0.8c4,0,8.1,0,12.9,0c-1.9,0.9-3.1,1.5-4.5,2.2c0,4.3,0,8.5,0,13.4c3.2,0,6.1,0,9,0
		c2.9,0,5.8,0,9,0c0-4.7,0-8.8,0-13.2c-0.9-0.5-2-1.1-3.2-1.7c0.1-0.2,0.1-0.4,0.2-0.6c3.9,0,7.8,0,11.7,0c0.1,0.2,0.2,0.4,0.3,0.5
		c-1.2,0.6-2.4,1.3-3.7,2c0,9.2,0,18.4,0,28c1.3,0.7,2.7,1.5,4.1,2.2c-0.1,0.2-0.1,0.4-0.2,0.7c-4.4,0-8.8,0-13.1,0
		C772.6,300.1,772.5,299.9,772.4,299.6z"/>
	<path class="st0" d="M241.8,300.1c-7.5,0-15.1,0-22.6,0c-0.1-0.3-0.1-0.7-0.2-1c1-0.3,2.1-0.7,3.1-0.8c4.8-0.7,5.2-0.6,5.3-5.7
		c0.2-7.7-0.1-15.4-0.1-23.2c0-4.6,0-9.2,0-13.9c-3.2-0.7-5.8-1.3-8.9-2.1c3.1-1.5,19.9-1.7,24.5-0.1c-3.2,0.8-5.4,1.3-8.2,2
		c-0.2,3.5-0.6,7-0.6,10.5c0,8.5,0.1,17,0.2,25.5c0.1,6.2,0.7,6.7,6,7c0.5,0,1,0.5,1.5,0.8C241.8,299.5,241.8,299.8,241.8,300.1z"/>
	<path class="st0" d="M503.4,293c-0.4-7.8-0.7-15.7-1.1-23.5c-1.9-0.6-3.5-1.2-5.2-1.7c0.1-0.3,0.1-0.6,0.2-0.9c3.6,0,7.1,0,11.4,0
		c-1.7,1-2.8,1.6-4.1,2.4c-0.6,10.6,1.5,21.4-0.3,32.4c-9.5-8.3-17.4-18-26-26.9c-1.1,3.1-1.2,17.4-0.2,23.3
		c1.8,0.6,3.7,1.1,5.5,1.7c0,0.4-0.1,0.7-0.1,1.1c-4.3,0.8-8.6,0.2-12.9,0c4.7-3.2,4.7-3.2,4.7-9.5c0-4.8,0-9.6-0.1-14.4
		c0-6.4-0.1-6.4-5.2-9c3.8-2.1,7.4-1.7,10,1.2c7.4,8.1,14.8,16.3,22.2,24.4C502.6,293.3,503,293.2,503.4,293z"/>
	<path class="st0" d="M548.7,283.7c-0.1-10.4,7.8-17.6,19.1-17.5c10.8,0.1,18.3,7.2,18.3,17.4c0,10.1-8,17.6-18.7,17.6
		C556.4,301.3,548.7,294.1,548.7,283.7z M580.8,283.4c-0.3-2-0.5-4.5-1.2-6.8c-1.7-5.4-6.2-8.6-11.8-8.8c-6.1-0.2-9.9,2.4-12.3,8
		c-2.2,5.1-2.1,10.2-0.1,15.3c2.5,6.1,6.8,8.8,13.5,8.2c6.1-0.5,9.7-3.6,11.1-10C580.5,287.6,580.5,285.7,580.8,283.4z"/>
	<path class="st0" d="M622.9,269.3c-1.7-0.5-3-0.8-4.5-1.2c2.3-1.5,20.2-2,28.6-0.9c0,2.2,0,4.5,0,6.8c-0.5-0.2-1-0.2-1-0.3
		c-1.4-5-5.1-5.4-9.4-5c-2.6,0.2-5.2,0-8.1,0c0,4.7,0,8.8,0,13.4c3.9,0,7.5,0.1,11.2-0.1c0.8,0,1.6-1.2,2.1-2
		c0.5-0.8,0.7-1.7,1.9-2.5c0,3.9,0,7.7,0,11.6c-0.2,0-0.7,0.1-0.7,0c-1.2-5.1-4.7-5.8-9.2-5c-1.6,0.3-3.3,0-5.3,0c0,5,0,9.4,0,14.6
		c5.5,0.4,11.1,1.4,16.3-0.8c2.1-0.9,3.4-3.7,5.8-6.6c-0.4,3.5-0.7,6-1.1,9.2c-10.4,0-20.7,0-31,0c0-0.2-0.1-0.5-0.1-0.7
		c1.4-0.4,2.7-0.8,4.5-1.3C622.9,288.9,622.9,279.2,622.9,269.3z"/>
	<path class="st0" d="M513.9,265.5c5.1,3.1,25.7,3.2,29.7,0.5c1.3,3.4,1.3,5.8,0.1,9.3c-4.3-5.9-4.9-6.1-12.2-4.8
		c0,9.1,0,18.3,0,27.5c1.9,0.7,3.5,1.4,5.1,2c-0.1,0.3-0.1,0.5-0.2,0.8c-5.3,0-10.6,0-16,0c0.3-0.6,0.3-1,0.5-1.1
		c5.3-2.2,5.4-2.2,5.3-7.9c-0.1-7.1-0.4-14.2-0.6-21.2c-6.1-2.2-10.1,0.3-13.1,5.5c-0.3-0.3-0.7-0.6-1-0.9
		C512.4,272.1,513.1,269,513.9,265.5z"/>
	<path class="st0" d="M291.9,263.7c1.2,2.3,2.1,3.5,2.6,4.8c2.8,7.5,5.6,15,8.3,22.6c1.2,3.4,1.9,7.2,5.9,9c-4.3,0-8.5,0-12.8,0
		c-0.1-0.2-0.1-0.4-0.2-0.6c0.7-0.3,1.5-0.7,2.2-0.9c0.7-0.2,1.5-0.4,2.5-0.6c-1.4-4.1-2.8-8-4.2-12.2c-3.6,0-7.1,0-10.9,0
		c-1.3,4-2.7,8-4.2,12.3c1.7,0.6,3.1,1,4.5,1.5c0,0.2,0,0.3,0,0.5c-3.9,0-7.9,0-11.8,0c5.6-1.1,6.2-6,7.8-10.1
		c2.7-7.2,5.3-14.5,8-21.7C290.1,267,290.8,265.9,291.9,263.7z M291,272.1c-0.3,0-0.6,0-0.9,0c-1.3,3.6-2.6,7.3-4,11
		c3.3,0,6,0,9.1,0C293.7,279.1,292.4,275.6,291,272.1z"/>
	<path class="st0" d="M319,298.1c2,0.7,3.3,1.1,4.5,1.5c0,0.2-0.1,0.4-0.1,0.6c-3.9,0-7.8,0-11.7,0c5.4-1.4,6.2-6.1,7.8-10.4
		c2.7-7.4,5.4-14.8,8.2-22.1c0.4-1,1-1.8,1.9-3.6c1.1,1.7,2.1,2.8,2.6,4.1c2.9,7.5,5.7,15,8.4,22.6c2.1,6,2.1,6,6.7,9.3
		c-4.8,0-9.1,0-13.4,0c-0.1-0.2-0.1-0.4-0.2-0.6c1.3-0.5,2.6-1.1,4.5-1.9c-1.3-3.9-2.7-7.9-4.1-12c-3.7,0-7.1,0-10.9,0
		C321.8,289.7,320.5,293.7,319,298.1z M333.2,283.2c-1.6-4.1-3.1-7.7-4.9-12.2c-1.7,4.7-3,8.3-4.4,12.2
		C327.1,283.2,329.8,283.2,333.2,283.2z"/>
	<path class="st0" d="M266.8,274.2c-0.8-1.3-1.3-2.4-1.9-3.4c-2-3-6.3-4-9.5-2.4c-3.6,1.9-4,5.7-0.7,8.2c1.7,1.3,3.7,2.2,5.6,3.3
		c1.9,1.1,3.8,2.1,5.6,3.3c3.4,2.3,4.9,5.6,4.1,9.7c-0.9,4.3-3.5,7.5-7.9,8.2c-3.3,0.5-6.7-0.1-10.1-0.5c-2.7-0.3-4.1-1.9-3.6-4.8
		c0.3-1.5,0.2-3,1.2-4.7c0.4,0.8,0.9,1.6,1.2,2.4c2,4.4,5.7,6.5,10,5.7c2.5-0.4,4.2-1.9,5-4.3c0.9-2.5,0-4.6-2-6.2
		c-1.6-1.2-3.4-2.2-5.1-3.3c-2.1-1.3-4.4-2.4-6.3-3.9c-2.9-2.4-4.7-5.4-3.3-9.4c1.3-3.9,4.3-5.9,8.3-6.4c1.4-0.2,2.8-0.1,4.2,0
		C267.1,266.1,268.3,267.9,266.8,274.2z"/>
	<path class="st0" d="M593,291.1c0.5,1.1,0.9,2.2,1.4,3.2c1.9,3.7,5.2,5.4,9.1,5c2.8-0.3,4.7-1.7,5.6-4.2c0.9-2.6,0-4.9-2.2-6.5
		c-1.7-1.3-3.7-2.3-5.5-3.4c-2-1.2-4.1-2.3-5.8-3.7c-2.8-2.3-4.2-5.3-3.1-9c1.1-3.9,4-5.7,7.7-6.5c1.3-0.3,2.8-0.2,4.2-0.1
		c5.8,0.2,7.7,2.6,5.9,8.5c-0.8-1.3-1.4-2.2-1.9-3.1c-1.3-2.1-3.2-3.2-5.8-3.3c-3.4,0-6.1,1.4-6.7,3.9c-0.7,3,1.2,4.6,3.4,5.9
		c2.9,1.7,6,3.2,8.9,5c4.6,2.9,6.3,6.9,4.9,11.4c-1.3,4.5-5,7.3-10,7.5c-1.1,0-2.2,0.1-3.2,0C590.9,300.5,590.7,299.1,593,291.1z"/>
	<path class="st0" d="M378.2,273.9c-0.9-0.9-1.4-1.2-1.7-1.6c-5.4-6.7-15-6.1-19.2,1.5c-3.4,6.2-3.6,12.8-0.7,19.2
		c3.2,7.1,13.8,8.7,19.3,3.1c1-1,1.7-2.1,2.6-3.2c1.1,5,0,7.4-4.5,7.9c-4.1,0.4-8.4,0.6-12.3-0.4c-9-2.3-13.5-9.3-12.6-18.4
		c0.8-8.2,7.8-15.4,16.1-16.2c3-0.3,6.2,0,9.2,0.7C378.6,267.5,378.9,268.2,378.2,273.9z"/>
	<path class="st0" d="M741.7,274.1c-0.3-0.7-0.4-1.5-0.9-2.1c-4.3-5.3-11.7-5.8-16.7-1.1c-5.7,5.4-6.5,18.4-1.5,24.6
		c4.1,5,13.3,5.4,17.9,0.6c0.9-1,1.7-2.1,2.7-3.3c0.9,5.6-0.2,7.6-5.2,8.1c-3.8,0.4-7.8,0.5-11.5-0.4c-9.1-2.3-13.7-9.2-12.8-18.3
		c0.8-8.3,7.6-15.6,15.9-16.3c3.3-0.3,6.8,0.1,10.1,0.8C743.3,267.6,743.7,269,741.7,274.1z"/>
	<path class="st0" d="M673.5,294.4c3.7-8.8,7.1-16.6,8.9-25.3c-1.8-0.7-3.1-1.3-4.4-1.9c0-0.2,0.1-0.3,0.1-0.5c3.9,0,7.7,0,11.6,0
		c-4,1.3-4.9,4.8-6.2,8c-3.2,8.2-6.4,16.4-9.7,24.6c-0.3,0.7-0.7,1.3-1.5,2.8c-1-1.7-1.7-2.8-2.2-3.9c-3.5-8.1-7-16.2-10.4-24.3
		c-1.2-3-2.6-5.6-6.1-6.7c4.9-0.8,9.7-0.8,14.7,0.1c-1.5,0.4-3,0.8-5.2,1.4C665.8,277.4,670.2,285.2,673.5,294.4z"/>
	<path class="st0" d="M708,267.6c-1.4,0.5-2.8,0.9-4.5,1.5c0,9.5,0,18.9,0,28.5c1.6,0.6,3.1,1.1,4.9,1.8c-3.3,1.2-10.1,1.5-15.6,0.6
		c0.1-0.3,0.2-0.7,0.3-0.8c5.2-1.8,5.2-1.7,5.2-7.4c0-6.5,0-13-0.1-19.5c0-1.1-0.3-2.1-0.5-3.3c-1.7-0.5-3.3-1-5-1.5
		C695.7,266.4,701.7,266.2,708,267.6z"/>
	<path class="st0" d="M465.6,300.3c-5,0-10.1,0-15.1,0c-0.1-0.2-0.1-0.5-0.2-0.7c1.6-0.6,3.3-1.1,5.2-1.8c0-9.4,0-18.9,0-28.6
		c-1.8-0.6-3.5-1.1-5.2-1.6c0-0.2,0.1-0.5,0.1-0.7c5,0,10,0,15,0c0.1,0.2,0.1,0.3,0.2,0.5c-1.5,0.6-2.9,1.2-4.9,2
		c0,4.4,0,9.1,0,13.7c0,3.6,0.1,7.1,0,10.7c-0.1,2.9,0.4,4.9,3.8,5c0.4,0,0.7,0.5,1.1,0.7C465.6,299.7,465.6,300,465.6,300.3z"/>
	<path class="st0" d="M578.1,350.6c-1.9,0-4.2,0-6.9,0c3.7-4.4,1.1-9.3,1.2-14.2c-2,4.6-3.9,9.1-6.3,14.6
		c-2.5-5.7-4.7-10.6-6.9-15.6c-0.3,0.1-0.7,0.2-1,0.3c0.6,4.9-2.7,10.1,2.2,14.7c-2,0-4,0-5.8,0c0.6-1.6,1.4-3.1,1.6-4.6
		c0.4-3.7,0.4-7.4,0.9-11.1c0.3-2.4-0.9-3.6-3.2-4.2c5.9-0.9,5.9-0.9,8.1,3.9c1.5,3.3,3,6.7,5,11c1.8-4.4,3.3-7.8,4.7-11.3
		c1.9-4.6,1.9-4.6,8-3.4c-3.8,0.9-3.8,3.3-3.7,5.8c0.1,3.1-0.1,6.2,0.2,9.3C576.5,347.3,577.4,348.8,578.1,350.6z"/>
	<path class="st0" d="M535.9,334.9c-3.1-4.8-6.9-3.2-10.7-2.9c0,2.3,0,4.6,0,7.1c3.2,0.2,6.2,1.2,8.8-2.3c0,2.4,0,4.3,0,6.7
		c-2.5-3.1-5.4-3-8.8-2.1c0,2.5,0,4.9,0,7.9c4.4-0.2,9.2,2.2,12.5-4.7c0,2.6,0,3.9,0,5.8c-6.3,0-12.3,0-18.5,0
		c3.1-2.9,3.2-16.3-0.2-20.4c5.1,0,9.8-0.1,14.5,0C535.9,330.2,535.9,330.3,535.9,334.9z"/>
	<path class="st0" d="M595.8,345.4c1,1.1,1.8,2.5,2.9,3.4c1.9,1.5,5,1,6.3-0.7c1.4-1.8,0.9-3.6-1.7-5.3c-1.7-1.1-3.5-1.9-5.2-3.1
		c-3.1-2.2-3.7-5.5-1.6-8c2-2.4,7.1-3.3,9.3-1.2c0.8,0.7,0.8,2.2,1.3,3.4c-2.4-1.1-4.1-2.3-6-2.7c-0.9-0.2-2.5,1.1-3,2.1
		c-0.3,0.6,0.6,2.3,1.4,2.9c1.4,1.2,3.2,1.9,4.8,2.8c3.8,2.3,5,5.2,3.6,8.4c-1.3,2.9-4.9,4.5-8.6,3.7
		C594.9,350.4,594.3,349.4,595.8,345.4z"/>
	<path class="st0" d="M402.6,333.7c-2.2-1.1-3.8-2.2-5.6-2.5c-0.9-0.1-2.5,1.1-3,2.1c-0.3,0.7,0.5,2.3,1.3,3
		c1.4,1.2,3.2,1.9,4.8,2.8c4.1,2.5,5.3,5.9,3.1,9.2c-2.6,3.9-7.9,3.9-11.2,1.7c-1-0.7-0.9-2.9-1.4-4.4c0.3-0.1,0.6-0.3,1-0.4
		c0.6,0.8,1.2,1.5,1.8,2.3c1.3,1.9,3.2,2.6,5.3,1.9c1.2-0.4,2.4-1.5,2.9-2.6c0.3-0.8-0.4-2.5-1.1-3.1c-1.6-1.4-3.6-2.3-5.5-3.5
		c-3.5-2.3-4.6-4.9-3-7.7c1.5-2.8,5.9-4,9-2.6C402.6,330.7,403.2,332,402.6,333.7z"/>
	<path class="st0" d="M466.4,334.5c-0.7-1-1.3-2.2-2.2-2.9c-1.7-1.2-4.4-0.7-5.4,0.9c-1.5,2.4,0.4,3.3,1.9,4.3
		c1.6,1,3.3,1.8,4.8,2.8c2.8,1.9,3.7,3.9,3.1,6.6c-0.7,2.9-2.6,4.5-5.5,5c-1.3,0.2-2.8,0.1-4.1-0.2c-3.7-0.8-3.9-1.3-2.8-5.9
		c0.9,1.2,1.6,2.3,2.5,3.2c1.9,1.8,5.2,1.8,6.7,0c1.6-1.9,1-3.9-1.7-5.7c-1.8-1.2-3.8-2.1-5.5-3.4c-2.7-2.2-3-5.4-0.9-7.7
		c2.2-2.4,7.4-3,9.3-0.8c0.7,0.7,0.6,2.1,0.9,3.2C467.1,334,466.7,334.3,466.4,334.5z"/>
	<path class="st0" d="M483.4,336c0.7-2.7,1.1-4.4,1.5-6.1c6.3,1.3,12.3,1.1,18.5,0.2c0,1.6,0,3.2,0,5.9c-2.2-3.3-4.4-4.6-7.9-3
		c0,4.7-0.1,9.6,0.1,14.5c0,1,1.5,1.9,2.5,3.2c-2.8,0-5.5,0-8.2,0c2.9-1.2,2.4-3.6,2.4-5.8c0-4,0-8,0-11.8
		C488.5,331,486.6,333.7,483.4,336z"/>
	<path class="st0" d="M419.8,330c2.3,0,4.6,0,6.9,0c-2.2,4.7,2.4,6.5,3.8,10.5c2.1-3.1,3.8-5.6,5.7-8.3c-0.6-0.7-1.1-1.3-1.8-2.1
		c2,0,3.8,0,5.8,0c-9.7,10.9-11,15.3-6.4,20.5c-1,0.1-1.7,0.1-2.4,0.1c-1.8,0-3.7,0-5.4,0c0.9-1.5,2.2-2.8,2.4-4.2
		c0.2-1.7,0-3.9-0.9-5.3C425.3,337.5,422.6,334,419.8,330z"/>
	<path class="st0" d="M802.1,276.6c-0.6-2.5-1.2-5-1.9-7.8c1.3,0,3,0,4.6,0c-0.7,2.7-1.3,5.3-2,7.9
		C802.7,276.7,802.4,276.7,802.1,276.6z"/>
	<path class="st0" d="M116.2,330.3c4.2,1,8.3,2.1,12.3,3.1c-0.1,0.4-0.1,0.8-0.2,1.2c-3.8-0.2-7.5-0.5-11.3-0.6c-3.8-0.1-7.6,0-12,0
		c0-6.6-1.1-63.3-0.8-79.8c0-0.7,0.3-1.5,0.5-2.6c11.8-0.1,23.5-2,35.2,0c8.8,1.5,14.2,6.7,17.4,14.9c3.7,9.6,1.4,18.1-5.2,25.3
		c-6.3,7-14.7,8.8-23.8,7.4c-3.1-0.5-6.1-1.8-8.6-5.6c2.3,0.4,3.7,0.5,5.2,0.8c8,1.5,17-2.5,19.9-9.4c5.7-13.7-0.7-28.5-16.9-30.1
		c-3.2-0.3-6.5,0-9.7-0.1c-2.5,0-3.7,1-3.5,3.6C115.2,266.3,115.2,326.9,116.2,330.3z"/>
	<path class="st0" d="M72.1,252c8.1,0,16.2,0,24.6,0c1.6,27.2-1.1,54.2-0.2,81.6c-6.4,0-12.5,0-18.5,0c0-0.2-0.1-0.3-0.1-0.5
		c1.8-0.5,3.6-1.2,5.4-1.4c2.4-0.3,3.2-1.8,3.2-3.8c-0.1-5.8-0.5-11.7-0.7-17.5c0-0.3-0.1-0.6-0.1-0.9c-0.2-14.7-0.4-29.3-0.6-44
		c0-1.2,0-2.5,0-3.7c0.1-3.1-1.5-4.9-4.4-5.8c-1.9-0.6-3.9-0.9-5.9-1.5c-1-0.3-2-0.8-3-1.2C71.9,252.9,72,252.4,72.1,252z"/>
</g>
</svg>
