<?xml version="1.0" encoding="utf-8"?>
<!-- Generator: Adobe Illustrator 19.0.0, SVG Export Plug-In . SVG Version: 6.00 Build 0)  -->
<svg version="1.1" id="Layer_1" xmlns="http://www.w3.org/2000/svg" xmlns:xlink="http://www.w3.org/1999/xlink" x="0px" y="0px"
	 viewBox="0 0 841.9 595.3" style="enable-background:new 0 0 841.9 595.3;" xml:space="preserve">
<style type="text/css">
	.st0{fill:#A0A0A0;}
</style>
<g>
	<path class="st0" d="M612.8,331.3L612.8,331.3l-16.2-102.9h0c-0.6-2.5-2.8-4.4-5.5-4.4l-0.1,0l0,0H565l0,0l-0.2,0
		c-2,0-3.7,1-4.7,2.5l0,0l-0.2,0.3l-0.1,0.2l-59.6,102.4l0,0c-0.5,0.8-0.7,1.8-0.7,2.8c0,3.1,2.5,5.7,5.7,5.7l0,0l0,0H528l0,0
		c2.3,0,4.3-1.4,5.2-3.5l0.5-0.8l35.8-69.2h0l0,0c0.5-0.9,1.8-0.9,2.2,0l6.2,61.8l0.8,6.5c0.2,2.9,2.7,5.2,5.6,5.2
		c0.1,0,0.2,0,0.4,0l0.2,0v0H607l0,0l0.2,0c3.1,0,5.7-2.5,5.7-5.7C612.9,331.9,612.9,331.6,612.8,331.3z"/>
	<path class="st0" d="M384.2,331.3C384.2,331.3,384.2,331.3,384.2,331.3L368,228.3c0,0,0,0,0,0c-0.6-2.5-2.8-4.4-5.5-4.4
		c0,0,0,0-0.1,0c0,0,0,0,0,0h-26.1c0,0,0,0,0,0c-0.1,0-0.1,0-0.2,0c-2,0-3.7,1-4.7,2.5c0,0,0,0,0,0l-0.2,0.3c0,0.1-0.1,0.1-0.1,0.2
		l-59.6,102.4c0,0,0,0,0,0c-0.5,0.8-0.7,1.8-0.7,2.8c0,3.1,2.5,5.7,5.7,5.7c0,0,0,0,0,0c0,0,0,0,0,0h22.8l0,0c2.3,0,4.3-1.4,5.2-3.5
		l0.5-0.8l35.8-69.2c0.5-0.9,1.8-0.9,2.2,0v0l0,0l6.2,61.8l0.8,6.4c0.2,2.9,2.7,5.2,5.6,5.2c0.1,0,0.2,0,0.4,0c0.1,0,0.1,0,0.2,0
		c0,0,0,0,0,0h22.1c0,0,0,0,0,0c0.1,0,0.1,0,0.2,0c3.1,0,5.7-2.5,5.7-5.7C384.3,331.9,384.3,331.6,384.2,331.3z"/>
	<path class="st0" d="M717.3,223.9C717.3,223.9,717.3,223.9,717.3,223.9l-87.4,0c0,0,0,0,0,0c-2.6,0.1-4.7,1.8-5.4,4.2c0,0,0,0,0,0
		l-0.1,0.3c0,0,0,0,0,0l-3.7,17.5c-0.1,0.4-0.1,0.8-0.1,1.2c0,3.1,2.4,5.6,5.5,5.7c0,0,0,0,0,0h18.1c0,0,0,0,0,0c0.1,0,0.3,0,0.4,0
		c3.1,0,5.7,2.5,5.7,5.7c0,0.4-0.1,0.9-0.1,1.3c0,0,0,0,0,0l-15.1,71c0,0,0,0,0,0c-0.1,0.4-0.2,0.9-0.2,1.3c0,3.1,2.5,5.6,5.6,5.7
		c0,0,0,0,0,0h23.4c0,0,0,0,0,0c2.8,0,5.1-2.1,5.5-4.8c0,0,0,0,0,0l16.1-75.5c0,0,0,0,0,0c0.5-2.6,2.8-4.6,5.6-4.6
		c0.2,0,0.3,0,0.5,0c0,0,0,0,0,0h20.7c0.3,0.1,0.7,0.1,1,0.1c2.6,0,4.8-1.7,5.5-4.1c0,0,0,0,0,0l0-0.1c0-0.1,0.1-0.3,0.1-0.4
		l3.8-17.5c0.1-0.4,0.1-0.8,0.1-1.2C722.8,226.5,720.3,224,717.3,223.9z"/>
	<path class="st0" d="M488.3,314.2c0-3-2.4-5.5-5.4-5.7c0,0,0,0,0,0h-37.2h-0.2c0,0,0,0,0,0c-3-0.1-5.5-2.6-5.5-5.7
		c0-0.3,0-0.6,0.1-0.9c0,0,0,0,0,0l0-0.2c0,0,0-0.1,0-0.1l15.1-70.8c0.1-0.4,0.2-0.9,0.2-1.3c0-3.1-2.4-5.5-5.5-5.7c0,0,0,0,0,0
		h-23.6c0,0,0,0,0,0c-2.7,0.1-4.9,2-5.4,4.5c0,0,0,0,0,0l-21.9,102.5c0,0.1,0,0.2-0.1,0.2l0,0.2c0,0,0,0,0,0c0,0.3-0.1,0.6-0.1,0.9
		c0,3.1,2.5,5.6,5.6,5.7c0,0,0,0,0,0h74.1c0,0,0,0,0,0c0.1,0,0.1,0,0.2,0c2.6,0,4.8-1.7,5.4-4.1c0,0,0,0,0,0l0.1-0.2
		c0-0.1,0-0.2,0.1-0.3l3.7-17.5c0,0,0,0,0,0C488.2,315.2,488.3,314.7,488.3,314.2z"/>
	<path class="st0" d="M270.9,250.6c0-0.5-0.1-0.9-0.2-1.4c-2.6-19.4-18.2-29.7-45.5-29.7c-23.2,0-47.2,11-47.2,37.8
		c0,18.2,13.1,26.2,28.6,30.9c16.8,5.1,25.3,6.6,25.3,14.1c0,6.1-5.8,9.9-14.9,9.9c-9.5,0-15.2-3.7-16.8-10.7c0,0,0,0,0,0
		c-0.7-2.4-2.8-4.1-5.4-4.2c0,0,0,0,0,0h-23.9c0,0,0,0,0,0c-3,0.2-5.3,2.6-5.3,5.6c0,0,0,0.1,0,0.1l0,0c0,0,0,0,0,0.1
		c0,0.3,0,0.6,0.1,0.8c2.4,24.7,23.9,34,48.1,34c25.1,0,51.7-11,51.7-39.7c0-25.3-21.3-30.2-41-35.5c-10.7-2.9-13.3-4.8-13.3-9.1
		c0-5.1,5.1-8.6,13-8.6c7.3,0,11.3,2.2,13.3,7.3c0.7,2.3,2.7,3.9,5.2,4c0,0,0,0,0,0h22.7c0,0,0,0,0,0
		C268.5,256.1,270.9,253.6,270.9,250.6z"/>
</g>
<g>
	<path class="st0" d="M236.1,375v-10.4l-6.1,9.1l-6.1-9.1V375h-3.1v-20.4l9.2,13.7l9.2-13.7V375H236.1z"/>
	<path class="st0" d="M253.9,374.2c-1.2-0.5-2.2-1.2-3.1-2.1c-0.9-0.9-1.6-1.9-2.1-3.1c-0.5-1.2-0.8-2.5-0.8-3.8
		c0-1.3,0.3-2.6,0.8-3.8c0.5-1.2,1.2-2.2,2.1-3.1c0.9-0.9,1.9-1.6,3.1-2.1c1.2-0.5,2.5-0.8,3.8-0.8c1.3,0,2.6,0.3,3.8,0.8
		c1.2,0.5,2.2,1.2,3.1,2.1c0.9,0.9,1.6,1.9,2.1,3.1c0.5,1.2,0.8,2.5,0.8,3.8c0,1.3-0.3,2.6-0.8,3.8c-0.5,1.2-1.2,2.2-2.1,3.1
		c-0.9,0.9-1.9,1.6-3.1,2.1c-1.2,0.5-2.5,0.8-3.8,0.8C256.4,375,255.1,374.7,253.9,374.2z M252.9,360.4c-1.3,1.3-2,3-2,4.7
		c0,1.8,0.7,3.5,2,4.7c1.3,1.3,3,2,4.7,2c1.8,0,3.5-0.7,4.7-2c1.3-1.3,2-3,2-4.7c0-1.8-0.7-3.5-2-4.7c-1.3-1.3-2.9-2-4.7-2
		C255.9,358.5,254.2,359.2,252.9,360.4z"/>
	<path class="st0" d="M289.8,375h-3.5l-4.9-6.6h-2.2v6.6h-3.1v-19.5h2.6h3.2c2.6,0,4.1,1.1,4.9,1.9c1,1.1,1.6,2.7,1.6,4.5
		c0,1.8-0.6,3.4-1.6,4.5c-0.5,0.5-1.2,1.1-2.3,1.5L289.8,375z M282,365.6c1.3,0,2.2-0.4,2.8-1.1c0.7-0.8,0.9-1.9,0.9-2.7
		c0-0.8-0.1-1.9-0.9-2.7c-0.6-0.7-1.6-1-2.8-1h-2.7v7.4H282z"/>
	<path class="st0" d="M300.6,363.4h7.1v2.8h-7.1v6.1h8.7v2.8h-8.7h-3v-19.5h3h8.7v2.7h-8.7V363.4z"/>
	<path class="st0" d="M343.8,358.2h-5.4V375h-3.1v-16.8H330v-2.7h13.8V358.2z"/>
	<path class="st0" d="M365.8,375h-3.1v-8.4H355v8.4h-3.1v-19.5h3.1v8.3h7.8v-8.3h3.1V375z"/>
	<path class="st0" d="M385.8,370.8h-7l-1.7,4.2h-3.4l8.5-20.4l8.5,20.4h-3.3L385.8,370.8z M384.7,368l-2.4-6l-2.4,6H384.7z"/>
	<path class="st0" d="M401.8,362.4V375h-3.1v-20.5l12.3,13.5v-12.5h3.1v20.4L401.8,362.4z"/>
	<path class="st0" d="M443.8,368.3c0,2.7-1.2,4.2-2.2,5.1c-1.2,1-2.9,1.6-4.7,1.6c-0.4,0-0.8,0-1.2-0.1v-3.1
		c0.4,0.1,0.8,0.2,1.2,0.2c1.1,0,2.1-0.3,2.8-0.9c0.7-0.6,1.1-1.5,1.1-2.7v-12.9h3.1V368.3z"/>
	<path class="st0" d="M455.2,373.4c-0.8-0.6-1.3-1.3-1.7-2.1c-0.4-0.9-0.7-1.9-0.7-3v-12.9h3.1v12.9c0,1.2,0.4,2.1,1.2,2.7
		c0.7,0.6,1.8,0.9,3,0.9c1.1,0,2.2-0.3,3-0.9c0.8-0.6,1.2-1.5,1.2-2.7v-12.9h3.1v12.9c0,1.1-0.2,2.1-0.7,3c-0.4,0.8-1,1.5-1.7,2.1
		c-1.3,1-3,1.6-4.8,1.6C458.2,375,456.5,374.4,455.2,373.4z"/>
	<path class="st0" d="M486.2,371c-0.6,1.9-2.3,3.4-4.4,3.8c-0.4,0.1-0.8,0.1-1.2,0.1c-0.8,0-1.6-0.1-2.3-0.4
		c-1.2-0.5-2.3-1.3-3.2-2.5l2.4-1.9c0.6,0.7,1.2,1.3,1.9,1.5c0.6,0.2,1.2,0.3,1.8,0.2c1-0.2,1.8-0.8,2.1-1.6
		c0.3-0.9-0.3-1.7-0.9-2.2c-0.9-0.8-2.3-2.2-2.4-2.3l-2.4-2.3c-0.7-0.7-1.2-1.5-1.5-2.3c-0.3-0.8-0.3-1.7-0.1-2.5
		c0.2-0.8,0.7-1.6,1.4-2.2c0.7-0.6,1.5-0.9,2.3-1.1c0.9-0.2,1.9-0.1,2.9,0.2c1,0.4,1.9,1.1,2.7,2l-2.4,1.9c-1-1.2-2-1.2-2.6-1.1
		c-0.7,0.1-1.3,0.6-1.4,1.1c-0.1,0.4-0.1,1,0.7,1.8l3.3,3.1c0.5,0.5,1.1,1,1.5,1.4c0.8,0.8,1.4,1.6,1.7,2.6
		C486.4,369.2,486.4,370.1,486.2,371z"/>
	<path class="st0" d="M506.9,358.2h-5.4V375h-3.1v-16.8h-5.4v-2.7h13.8V358.2z"/>
	<path class="st0" d="M538.8,370.8h-7l-1.7,4.2h-3.4l8.5-20.4l8.5,20.4h-3.3L538.8,370.8z M537.6,368l-2.4-6l-2.4,6H537.6z"/>
	<path class="st0" d="M567.5,355.4h3.2c2.6,0,4.1,1.1,4.9,1.9c1.1,1.2,1.6,2.7,1.6,4.5c0,1.8-0.5,3.4-1.6,4.5
		c-0.8,0.9-2.3,1.9-4.9,1.9H568v6.6h-3.1v-19.5H567.5z M574.4,361.9c0-0.8-0.2-1.9-0.9-2.7c-0.6-0.7-1.6-1.1-2.8-1.1H568v7.4h2.7
		c1.3,0,2.2-0.3,2.8-1C574.3,363.8,574.4,362.7,574.4,361.9z"/>
	<path class="st0" d="M593.9,370.8h-7l-1.7,4.2h-3.4l8.5-20.4l8.5,20.4h-3.3L593.9,370.8z M592.8,368l-2.4-6l-2.4,6H592.8z"/>
	<path class="st0" d="M620.3,375h-3.5l-4.9-6.6h-2.2v6.6h-3.1v-19.5h2.6h3.2c2.6,0,4.1,1.1,4.9,1.9c1,1.1,1.6,2.7,1.6,4.5
		c0,1.8-0.6,3.4-1.6,4.5c-0.5,0.5-1.2,1.1-2.3,1.5L620.3,375z M612.4,365.6c1.3,0,2.2-0.4,2.8-1.1c0.7-0.8,0.9-1.9,0.9-2.7
		c0-0.8-0.1-1.9-0.9-2.7c-0.6-0.7-1.6-1-2.8-1h-2.7v7.4H612.4z"/>
	<path class="st0" d="M640.3,358.2h-5.4V375h-3.1v-16.8h-5.4v-2.7h13.8V358.2z"/>
	<path class="st0" d="M657,364.7V375h-3.1v-10.2l-6.9-9.3h3.6l4.8,6.7l4.8-6.7h3.5L657,364.7z"/>
</g>
</svg>
